SplineFontDB: 3.0
FontName: ListingOne
FullName: Listing One
FamilyName: ListingOne
Weight: Regular
Copyright: Copyright (c) 2016, chris
UComments: "2016-11-22: Created with FontForge (http://fontforge.org)"
Version: 001.000
ItalicAngle: 0
UnderlinePosition: -12
UnderlineWidth: 4
Ascent: 103
Descent: 25
InvalidEm: 0
LayerCount: 2
Layer: 0 0 "Back" 1
Layer: 1 0 "Fore" 0
XUID: [1021 226 -69582396 20756]
StyleMap: 0x0000
FSType: 0
OS2Version: 0
OS2_WeightWidthSlopeOnly: 0
OS2_UseTypoMetrics: 1
CreationTime: 1479806616
ModificationTime: 1479964107
OS2TypoAscent: 0
OS2TypoAOffset: 1
OS2TypoDescent: 0
OS2TypoDOffset: 1
OS2TypoLinegap: 12
OS2WinAscent: 0
OS2WinAOffset: 1
OS2WinDescent: 0
OS2WinDOffset: 1
HheadAscent: 0
HheadAOffset: 1
HheadDescent: 0
HheadDOffset: 1
OS2Vendor: 'PfEd'
Lookup: 4 0 1 "'rlig' Required Ligatures in Latin lookup 0" { "'rlig' Required Ligatures in Latin lookup 0-1"  } ['rlig' ('DFLT' <'dflt' > 'latn' <'dflt' > ) ]
MarkAttachClasses: 1
DEI: 91125
Encoding: UnicodeBmp
UnicodeInterp: none
NameList: AGL For New Fonts
DisplaySize: -128
AntiAlias: 1
FitToEm: 0
WinInfo: 323 19 9
BeginPrivate: 1
BlueValues 18 [-1 0 68 69 92 93]
EndPrivate
Grid
6 92 m 5
 70 92 l 5
 70 24 l 5
 6 24 l 5
 6 92 l 5
38 102 m 1
 58 102 l 1
 58 96 l 1
 38 96 l 1
 38 102 l 1
38 102 m 1
 18 102 l 1
 18 108 l 1
 38 108 l 1
 38 102 l 1
18 96 m 1
 18 108 l 1
 58 108 l 1
 58 96 l 1
 18 96 l 1
18 92 m 1
 58 92 l 1
 58 64 l 1
 18 64 l 1
 18 92 l 1
38 46 m 1
 70 46 l 1
 70 0 l 1
 38 0 l 1
 38 46 l 1
6 92 m 1
 38 92 l 1
 38 46 l 1
 6 46 l 1
 6 92 l 1
6 68 m 1
 6 92 l 1
 70 92 l 1
 70 68 l 1
 6 68 l 1
32 92 m 1
 44 92 l 1
 44 0 l 1
 32 0 l 1
 32 92 l 1
18 64 m 1
 58 64 l 1
 58 4 l 1
 18 4 l 1
 18 64 l 1
6 68 m 1
 70 68 l 1
 70 0 l 1
 6 0 l 1
 6 68 l 1
EndSplineSet
BeginChars: 65539 334

StartChar: n
Encoding: 110 110 0
Width: 76
VWidth: 0
Flags: HW
HStem: 0 10G<6 18 58 70> 64 4<29 52>
VStem: 6 12<0 54 62 68> 58 12<0 54>
LayerCount: 2
Fore
SplineSet
42 68 m 3
 53 68 70 64 70 52 c 0
 70 32 70 0 70 0 c 0
 58 0 l 0
 58 54 l 2
 58 54 58 60 52 62 c 0
 47 64 44 64 38 64 c 0
 32 64 26 61 24 60 c 0
 20 58 18 54 18 54 c 2
 18 0 l 0
 6 0 l 0
 6 68 l 0
 18 68 l 0
 18 62 l 0
 18 62 31 68 42 68 c 3
EndSplineSet
EndChar

StartChar: o
Encoding: 111 111 1
AltUni2: 0003bf.ffffffff.0
Width: 76
VWidth: 0
Flags: HW
HStem: -1 4<27 49> 65 4<27 49>
VStem: 6 12<9 59> 58 12<9 59>
LayerCount: 2
Fore
SplineSet
38 69 m 0
 52 69 70 65 70 51 c 0
 70 37 70 31 70 17 c 0
 70 3 52 -1 38 -1 c 0
 24 -1 6 3 6 17 c 0
 6 31 6 37 6 51 c 0
 6 65 24 69 38 69 c 0
38 65 m 0
 28 65 18 61 18 51 c 0
 18 37 18 31 18 17 c 0
 18 7 28 3 38 3 c 0
 48 3 58 7 58 17 c 0
 58 31 58 37 58 51 c 0
 58 61 48 65 38 65 c 0
EndSplineSet
EndChar

StartChar: dotlessi
Encoding: 305 305 3
Width: 76
VWidth: 0
Flags: HW
HStem: 0 10G<33 45> 64 4<19 33>
VStem: 33 12<0 64>
LayerCount: 2
Fore
SplineSet
19 68 m 1
 45 68 l 1
 45 0 l 1
 33 0 l 1
 33 64 l 0
 19 64 l 0
 19 68 l 1
EndSplineSet
EndChar

StartChar: p
Encoding: 112 112 4
Width: 76
VWidth: 0
Flags: HW
HStem: -1 4<27 49> 58 10G<6 18> 65 4<27 49>
VStem: 6 12<-24 2 9 59 66 68> 58 12<9 59>
LayerCount: 2
Fore
SplineSet
38 69 m 0xb8
 52 69 70 65 70 51 c 0
 70 37 70 31 70 17 c 0
 70 3 52 -1 38 -1 c 0
 31 -1 24 0 18 2 c 2
 18 -24 l 1
 6 -24 l 1
 6 18 l 1
 6 50 l 1
 6 68 l 1
 18 68 l 1xd8
 18 66 l 2
 18 66 31 69 38 69 c 0xb8
18 51 m 2
 18 17 l 2
 18 7 28 3 38 3 c 0
 48 3 58 7 58 17 c 0
 58 31 58 37 58 51 c 0
 58 61 48 65 38 65 c 0xb8
 28 65 18 61 18 51 c 2
EndSplineSet
EndChar

StartChar: q
Encoding: 113 113 5
Width: 76
VWidth: 0
Flags: HW
HStem: -1 4<27 49> 58 10G<58 70> 65 4<27 49>
VStem: 6 12<9 59> 58 12<-24 2 9 59 66 68>
LayerCount: 2
Fore
SplineSet
38 69 m 0xb8
 45 69 58 66 58 66 c 2
 58 68 l 1
 70 68 l 1xd8
 70 50 l 1
 70 18 l 1
 70 -24 l 1
 58 -24 l 1
 58 2 l 2
 52 0 45 -1 38 -1 c 0
 24 -1 6 3 6 17 c 0
 6 31 6 37 6 51 c 0
 6 65 24 69 38 69 c 0xb8
58 51 m 2
 58 61 48 65 38 65 c 0xb8
 28 65 18 61 18 51 c 0
 18 37 18 31 18 17 c 0
 18 7 28 3 38 3 c 0
 48 3 58 7 58 17 c 2
 58 51 l 2
EndSplineSet
EndChar

StartChar: d
Encoding: 100 100 6
Width: 76
VWidth: 0
Flags: HW
HStem: -1 4<27 49> 0 10G<58 70> 64 4<27 49> 82 10G<58 70>
VStem: 6 12<9 58> 58 12<0 2 9 58 65 92>
LayerCount: 2
Fore
SplineSet
38 -1 m 0xbc
 24 -1 6 3 6 17 c 0
 6 31 6 36 6 50 c 0
 6 64 24 68 38 68 c 0
 45 68 52 67 58 65 c 2
 58 92 l 1
 70 92 l 1
 70 50 l 1
 70 17 l 1
 70 0 l 1
 58 0 l 1x7c
 58 2 l 2
 52 0 45 -1 38 -1 c 0xbc
58 17 m 2
 58 50 l 2
 58 60 48 64 38 64 c 0
 28 64 18 60 18 50 c 0
 18 36 18 31 18 17 c 0
 18 7 28 3 38 3 c 0xbc
 48 3 58 7 58 17 c 2
EndSplineSet
EndChar

StartChar: b
Encoding: 98 98 7
Width: 76
VWidth: 0
Flags: HW
HStem: -1 4<27 49> 0 10G<6 18> 64 4<27 49> 82 10G<6 18>
VStem: 6 12<0 2 9 58 65 92> 58 12<9 58>
LayerCount: 2
Fore
SplineSet
38 -1 m 0xbc
 31 -1 18 2 18 2 c 2
 18 0 l 1
 6 0 l 1x7c
 6 18 l 1
 6 50 l 1
 6 92 l 1
 18 92 l 1
 18 65 l 2
 24 67 31 68 38 68 c 0
 52 68 70 64 70 50 c 0
 70 36 70 31 70 17 c 0
 70 3 52 -1 38 -1 c 0xbc
18 17 m 2
 18 7 28 3 38 3 c 0xbc
 48 3 58 7 58 17 c 0
 58 31 58 36 58 50 c 0
 58 60 48 64 38 64 c 0
 28 64 18 60 18 50 c 2
 18 17 l 2
EndSplineSet
EndChar

StartChar: a
Encoding: 97 97 8
Width: 76
VWidth: 0
Flags: HW
HStem: -1 4<27 49> 0 10G<58 70> 65 4<26 50>
VStem: 6 12<9 27 52 59> 58 12<0 2 9 42 46 59>
LayerCount: 2
Fore
SplineSet
58 42 m 1xb8
 24 30 l 2
 22 29 18 26 18 23 c 2
 18 17 l 2
 18 7 28 3 38 3 c 0
 48 3 58 7 58 17 c 2
 58 19 l 1
 58 42 l 1xb8
6 52 m 1
 6 66 24 69 38 69 c 0
 52 69 70 66 70 52 c 2
 70 19 l 1
 70 17 l 1
 70 0 l 1
 58 0 l 1x78
 58 2 l 1
 52 0 45 -1 38 -1 c 0
 24 -1 6 3 6 17 c 2
 6 22 l 2
 6 25 10 29 12 30 c 2
 58 46 l 1
 58 52 l 2
 58 62 48 65 38 65 c 0
 28 65 18 62 18 52 c 1
 6 52 l 1
EndSplineSet
EndChar

StartChar: s
Encoding: 115 115 10
Width: 76
VWidth: 0
Flags: HW
HStem: -1 4<26 48> 65 4<23 50>
VStem: 6 12<9 16 49 62> 58 12<10 25 52 59>
LayerCount: 2
Fore
SplineSet
6 55 m 3
 6 69 24 69 38 69 c 0
 52 69 70 66 70 52 c 0
 58 52 l 0
 58 62 48 65 38 65 c 0
 28 65 18 65 18 55 c 3
 18 47 26 44 38 40 c 0
 51 35 70 31 70 17 c 3
 70 3 52 -1 38 -1 c 0
 24 -1 6 2 6 16 c 0
 18 16 l 0
 18 6 28 3 38 3 c 0
 48 3 58 8 58 17 c 3
 58 27 48 31 38 35 c 0
 25 39 6 45 6 55 c 3
EndSplineSet
EndChar

StartChar: c
Encoding: 99 99 11
Width: 76
VWidth: 0
Flags: HW
HStem: -1 4<26 50> 65 4<26 50>
VStem: 6 12<9 59> 58 12<9 16 52 59>
LayerCount: 2
Fore
SplineSet
70 16 m 0
 70 2 52 -1 38 -1 c 0
 24 -1 6 2 6 16 c 0
 6 30 6 38 6 52 c 0
 6 66 24 69 38 69 c 0
 52 69 70 66 70 52 c 0
 58 52 l 0
 58 62 48 65 38 65 c 0
 28 65 18 62 18 52 c 0
 18 38 18 30 18 16 c 0
 18 6 28 3 38 3 c 0
 48 3 58 6 58 16 c 0
 70 16 l 0
EndSplineSet
EndChar

StartChar: e
Encoding: 101 101 12
Width: 76
VWidth: 0
Flags: HW
HStem: -1 4<26 50> 36 4<18 58> 65 4<27 49>
VStem: 6 12<9 36 40 59> 58 12<9 16 40 59>
LayerCount: 2
Fore
SplineSet
70 16 m 1
 70 2 52 -1 38 -1 c 0
 24 -1 6 2 6 16 c 0
 6 30 6 37 6 51 c 0
 6 65 24 69 38 69 c 0
 52 69 70 65 70 51 c 2
 70 40 l 1
 70 36 l 1
 18 36 l 1
 18 16 l 2
 18 6 28 3 38 3 c 0
 48 3 58 6 58 16 c 1
 70 16 l 1
18 40 m 1
 58 40 l 1
 58 51 l 2
 58 61 48 65 38 65 c 0
 28 65 18 61 18 51 c 2
 18 40 l 1
EndSplineSet
EndChar

StartChar: h
Encoding: 104 104 13
Width: 76
VWidth: 0
Flags: HW
HStem: 0 10G<6 18 58 70> 64 4<27 49> 82 10G<6 18>
VStem: 6 12<0 58 65 92> 58 12<0 58>
LayerCount: 2
Fore
SplineSet
18 50 m 2
 18 0 l 1
 6 0 l 1
 6 18 l 1
 6 50 l 1
 6 92 l 1
 18 92 l 1
 18 65 l 2
 24 67 31 68 38 68 c 0
 52 68 70 64 70 50 c 0
 70 36 70 14 70 0 c 0
 58 0 l 0
 58 14 58 36 58 50 c 0
 58 60 48 64 38 64 c 0
 28 64 18 60 18 50 c 2
EndSplineSet
EndChar

StartChar: v
Encoding: 118 118 14
Width: 76
VWidth: 0
Flags: HW
HStem: 0 10G<33 46> 58 10G<6 22 62 70>
LayerCount: 2
Fore
SplineSet
6 68 m 1
 17 68 l 1
 43 12 l 1
 66 68 l 1
 70 68 l 1
 42 0 l 1
 38 0 l 1
 6 68 l 1
EndSplineSet
EndChar

StartChar: l
Encoding: 108 108 15
Width: 76
VWidth: 0
Flags: HW
HStem: 0 4<46 59> 88 4<18 32>
VStem: 32 12<5 88>
LayerCount: 2
Fore
SplineSet
32 12 m 3
 32 49 32 88 32 88 c 1
 18 88 l 1
 18 92 l 1
 44 92 l 1
 44 92 44 50 44 12 c 3
 44 7 47 4 50 4 c 3
 56 4 59 4 59 4 c 1
 59 0 l 1
 59 0 51 0 44 0 c 3
 36 0 32 4 32 12 c 3
EndSplineSet
EndChar

StartChar: u
Encoding: 117 117 16
Width: 76
VWidth: 0
Flags: HW
HStem: 0 4<24 47> 58 10G<6 18 58 70>
VStem: 6 12<14 68> 58 12<0 6 14 68>
LayerCount: 2
Fore
SplineSet
34 0 m 3
 23 0 6 4 6 16 c 0
 6 36 6 68 6 68 c 0
 18 68 l 0
 18 14 l 2
 18 14 18 8 24 6 c 0
 29 4 32 4 38 4 c 0
 44 4 50 7 52 8 c 0
 56 10 58 14 58 14 c 2
 58 68 l 0
 70 68 l 0
 70 0 l 0
 58 0 l 0
 58 6 l 0
 58 6 45 0 34 0 c 3
EndSplineSet
EndChar

StartChar: t
Encoding: 116 116 17
Width: 76
VWidth: 0
Flags: HW
HStem: 0 4<35 45> 64 4<6 20 32 46> 82 10G<20 32>
VStem: 20 12<8 64 68 92> 46 12<5 14>
LayerCount: 2
Fore
SplineSet
20 68 m 1
 20 92 l 1
 32 92 l 1
 32 68 l 1
 46 68 l 1
 46 64 l 1
 32 64 l 1
 32 18 l 2
 32 8 36 4 39 4 c 0
 40 4 l 0
 42 4 46 4 46 14 c 1
 58 14 l 1
 58 0 48 0 39 0 c 0
 31 0 20 4 20 18 c 2
 20 64 l 1
 6 64 l 1
 6 68 l 1
 20 68 l 1
EndSplineSet
EndChar

StartChar: r
Encoding: 114 114 18
Width: 76
VWidth: 0
Flags: HW
HStem: 0 10G<6 18> 64 4<29 52>
VStem: 6 12<0 54 62 68>
LayerCount: 2
Fore
SplineSet
42 68 m 3
 53 68 70 64 70 52 c 0
 58 52 l 0
 58 54 l 2
 58 54 58 60 52 62 c 0
 47 64 44 64 38 64 c 0
 32 64 26 61 24 60 c 0
 20 58 18 54 18 54 c 2
 18 0 l 0
 6 0 l 0
 6 68 l 0
 18 68 l 0
 18 62 l 0
 18 62 31 68 42 68 c 3
EndSplineSet
EndChar

StartChar: g
Encoding: 103 103 19
Width: 76
VWidth: 0
Flags: HW
HStem: -25 4<27 49> -1 4<27 49> 58 10G<58 70> 65 4<27 49>
VStem: 6 12<-15 -7 9 59> 58 12<-15 2 9 59 66 68>
LayerCount: 2
Fore
SplineSet
58 51 m 2xdc
 58 61 48 65 38 65 c 0
 28 65 18 61 18 51 c 2
 18 17 l 2
 18 7 28 3 38 3 c 0
 48 3 58 7 58 17 c 2
 58 51 l 2xdc
38 69 m 0
 45 69 58 66 58 66 c 1
 58 68 l 1
 70 68 l 1xec
 70 43 70 18 70 -7 c 0
 70 -21 52 -25 38 -25 c 0
 24 -25 6 -21 6 -7 c 1
 18 -7 l 1
 18 -17 28 -21 38 -21 c 0
 48 -21 58 -17 58 -7 c 2
 58 2 l 1
 52 0 45 -1 38 -1 c 0
 24 -1 6 3 6 17 c 2
 6 51 l 2
 6 65 24 69 38 69 c 0
EndSplineSet
EndChar

StartChar: L
Encoding: 76 76 20
Width: 76
VWidth: 0
Flags: HW
HStem: 0 4<18 70> 82 10G<6 18>
VStem: 6 12<4 92>
LayerCount: 2
Fore
SplineSet
6 92 m 1
 18 92 l 1
 18 4 l 1
 70 4 l 1
 70 0 l 1
 18 0 l 1
 6 0 l 1
 6 92 l 1
EndSplineSet
EndChar

StartChar: y
Encoding: 121 121 21
Width: 76
VWidth: 0
Flags: HW
HStem: -25 4<19 29> 58 10G<6 22 62 70>
VStem: 6 12<-20 -11>
LayerCount: 2
Fore
SplineSet
33 -20 m 2
 33 -21 30 -25 24 -25 c 3
 17 -25 6 -25 6 -11 c 1
 18 -11 l 3
 18 -20 20 -21 25 -21 c 3
 28 -21 31 -17 31 -17 c 2
 38 0 l 2
 6 68 l 1
 17 68 l 1
 43 12 l 1
 66 68 l 1
 70 68 l 1
 33 -20 l 2
EndSplineSet
EndChar

StartChar: m
Encoding: 109 109 22
Width: 76
VWidth: 0
Flags: HW
HStem: 0 10G<6 18 32 44 58 70> 64 4<22 30 48 55>
VStem: 6 12<0 61 62 68> 32 12<0 60> 58 12<0 60>
CounterMasks: 1 38
LayerCount: 2
Fore
SplineSet
52 64 m 3
 47 64 44 59 44 53 c 0
 44 35 44 18 44 0 c 1
 32 0 l 1
 32 54 l 0
 32 57 31 64 26 64 c 0
 21 64 18 57 18 54 c 0
 18 0 l 1
 6 0 l 1
 6 68 l 1
 18 68 l 1
 18 62 l 1
 18 62 22 68 28 68 c 0
 31 68 38 66 42 59 c 1
 43 64 49 68 55 68 c 0
 59 68 70 63 70 51 c 2
 70 0 l 1
 58 0 l 1
 58 54 l 0
 58 57 56 64 52 64 c 3
EndSplineSet
EndChar

StartChar: x
Encoding: 120 120 23
Width: 76
VWidth: 0
Flags: HW
HStem: 0 10G<6 19 51 70> 58 10G<6 26 56 70>
LayerCount: 2
Fore
SplineSet
6 68 m 1
 18 68 l 1
 39 40 l 1
 65 68 l 1
 70 68 l 1
 42 37 l 1
 70 0 l 2
 58 0 l 2
 36 31 l 1
 11 0 l 1
 6 0 l 1
 34 34 l 1
 6 68 l 1
EndSplineSet
EndChar

StartChar: z
Encoding: 122 122 24
Width: 76
VWidth: 0
Flags: HW
HStem: 0 4<21 70> 64 4<6 55>
LayerCount: 2
Fore
SplineSet
55 64 m 1
 6 64 l 1
 6 68 l 1
 58 68 l 1
 60 68 l 1
 70 68 l 1
 21 4 l 1
 70 4 l 1
 70 0 l 1
 18 0 l 1
 16 0 l 1
 6 0 l 1
 55 64 l 1
EndSplineSet
EndChar

StartChar: j
Encoding: 106 106 25
Width: 76
VWidth: 0
Flags: HW
HStem: -25 4<23 33> 64 4<22 36> 76 12<37 47>
VStem: 10 12<-20 -11> 36 12<-17 64 77 87>
LayerCount: 2
Fore
SplineSet
48 -7 m 2
 48 -21 37 -25 29 -25 c 0
 20 -25 10 -25 10 -11 c 1
 22 -11 l 1
 22 -21 26 -21 28 -21 c 0
 29 -21 l 0
 32 -21 36 -17 36 -7 c 2
 36 64 l 1
 22 64 l 1
 22 68 l 1
 36 68 l 1
 48 68 l 1
 48 -7 l 2
EndSplineSet
Refer: 58 46 N 1 0 0 1 4 76 2
EndChar

StartChar: f
Encoding: 102 102 26
Width: 76
VWidth: 0
Flags: HW
HStem: 0 10G<32 44> 64 4<18 32 44 58> 88 4<47 56>
VStem: 32 12<0 64 68 84> 58 12<78 87>
LayerCount: 2
Fore
SplineSet
32 64 m 1
 18 64 l 1
 18 68 l 1
 32 68 l 1
 32 74 l 2
 32 88 43 92 51 92 c 0
 60 92 70 92 70 78 c 1
 58 78 l 1
 58 87 55 88 52 88 c 0
 51 88 l 0
 48 88 44 84 44 74 c 2
 44 68 l 1
 58 68 l 1
 58 64 l 1
 44 64 l 1
 44 0 l 1
 32 0 l 1
 32 64 l 1
EndSplineSet
EndChar

StartChar: uniFB01
Encoding: 64257 64257 27
Width: 152
VWidth: 0
Flags: HW
HStem: 0 10G<19 31 95 107> 64 4<6 19 31 95> 88 4<40 89>
VStem: 19 12<0 64 68 84> 95 12<0 64 78 85>
LayerCount: 2
Fore
SplineSet
31 68 m 1
 107 68 l 1
 107 0 l 1
 95 0 l 1
 95 64 l 1
 31 64 l 1
 31 0 l 1
 19 0 l 1
 19 64 l 1
 6 64 l 1
 6 68 l 1
 19 68 l 1
 19 74 l 2
 19 88 26 92 64 92 c 0
 92 92 107 92 107 78 c 1
 95 78 l 1
 95 87 88 88 73 88 c 0
 70 88 67 88 64 88 c 0
 32 88 31 84 31 74 c 2
 31 68 l 1
EndSplineSet
LCarets2: 1 0
Ligature2: "'rlig' Required Ligatures in Latin lookup 0-1" f i
EndChar

StartChar: uniFB02
Encoding: 64258 64258 28
Width: 152
VWidth: 0
Flags: HW
HStem: 0 4<111 124> 64 4<6 20 32 46> 88 4<35 97>
VStem: 20 12<0 64 68 84> 97 12<5 88>
LayerCount: 2
Fore
SplineSet
39 88 m 2
 36 88 32 84 32 74 c 2
 32 68 l 1
 46 68 l 1
 46 64 l 1
 32 64 l 1
 32 0 l 1
 20 0 l 1
 20 64 l 1
 6 64 l 1
 6 68 l 1
 20 68 l 1
 20 74 l 2
 20 88 31 92 39 92 c 2
 87 92 l 1
 109 92 l 1
 109 92 109 50 109 12 c 0
 109 7 112 4 115 4 c 0
 121 4 124 4 124 4 c 1
 124 0 l 1
 124 0 116 0 109 0 c 0
 101 0 97 4 97 12 c 0
 97 49 97 88 97 88 c 1
 87 88 l 1
 39 88 l 2
EndSplineSet
LCarets2: 1 0
Ligature2: "'rlig' Required Ligatures in Latin lookup 0-1" f l
EndChar

StartChar: O
Encoding: 79 79 30
AltUni2: 00039f.ffffffff.0
Width: 76
VWidth: 0
Flags: HW
HStem: -1 4<26 50> 89 4<26 50>
VStem: 6 12<9 83> 58 12<9 83>
LayerCount: 2
Fore
SplineSet
38 93 m 0
 52 93 70 90 70 76 c 0
 70 62 70 30 70 16 c 0
 70 2 52 -1 38 -1 c 0
 24 -1 6 2 6 16 c 0
 6 30 6 62 6 76 c 0
 6 90 24 93 38 93 c 0
38 89 m 0
 28 89 18 86 18 76 c 0
 18 62 18 30 18 16 c 0
 18 6 28 3 38 3 c 0
 48 3 58 6 58 16 c 0
 58 30 58 62 58 76 c 0
 58 86 48 89 38 89 c 0
EndSplineSet
EndChar

StartChar: V
Encoding: 86 86 31
Width: 76
VWidth: 0
Flags: HW
HStem: 0 10G<35 45> 82 10G<6 20 63 70>
LayerCount: 2
Fore
SplineSet
6 92 m 1
 16 92 l 1
 43 16 l 1
 66 92 l 1
 70 92 l 1
 42 0 l 1
 38 0 l 1
 6 92 l 1
EndSplineSet
EndChar

StartChar: Y
Encoding: 89 89 32
AltUni2: 0003a5.ffffffff.0
Width: 76
VWidth: 0
Flags: HW
HStem: 0 10G<33 45> 82 10G<6 23 60 70>
VStem: 33 12<0 47>
LayerCount: 2
Fore
SplineSet
6 92 m 1
 17 92 l 1
 41 52 l 1
 66 92 l 1
 70 92 l 1
 45 52 l 1
 45 0 l 1
 33 0 l 1
 33 47 l 1
 6 92 l 1
EndSplineSet
EndChar

StartChar: J
Encoding: 74 74 33
Width: 76
VWidth: 0
Flags: HW
HStem: -1 4<27 49> 82 10G<58 70>
VStem: 6 12<9 17> 58 12<9 92>
LayerCount: 2
Fore
SplineSet
58 92 m 0
 70 92 l 0
 70 78 70 31 70 17 c 0
 70 3 52 -1 38 -1 c 0
 24 -1 6 3 6 17 c 0
 18 17 l 0
 18 7 28 3 38 3 c 0
 48 3 58 7 58 17 c 0
 58 31 58 78 58 92 c 0
EndSplineSet
EndChar

StartChar: I
Encoding: 73 73 34
Width: 76
VWidth: 0
Flags: HW
HStem: 0 4<18 33 45 58> 88 4<18 33 45 58>
VStem: 33 12<4 88>
LayerCount: 2
Fore
SplineSet
18 92 m 1
 58 92 l 1
 58 88 l 1
 45 88 l 1
 45 4 l 1
 58 4 l 1
 58 0 l 1
 18 0 l 1
 18 4 l 1
 33 4 l 1
 33 88 l 1
 18 88 l 1
 18 92 l 1
EndSplineSet
EndChar

StartChar: T
Encoding: 84 84 35
AltUni2: 0003a4.ffffffff.0
Width: 76
VWidth: 0
Flags: HW
HStem: 0 10G<32 44> 88 4<6 32 44 70>
VStem: 32 12<0 88>
LayerCount: 2
Fore
SplineSet
6 92 m 1
 70 92 l 1
 70 88 l 1
 44 88 l 1
 44 0 l 1
 32 0 l 1
 32 88 l 1
 6 88 l 1
 6 92 l 1
EndSplineSet
EndChar

StartChar: U
Encoding: 85 85 36
Width: 76
VWidth: 0
Flags: HW
HStem: -1 4<27 49> 82 10G<6 18 58 70>
VStem: 6 12<9 92> 58 12<9 92>
LayerCount: 2
Fore
SplineSet
58 92 m 1
 70 92 l 1
 70 78 70 31 70 17 c 0
 70 3 52 -1 38 -1 c 0
 24 -1 6 3 6 17 c 2
 6 92 l 1
 18 92 l 1
 18 17 l 2
 18 7 28 3 38 3 c 0
 48 3 58 7 58 17 c 0
 58 31 58 78 58 92 c 1
EndSplineSet
EndChar

StartChar: underscore
Encoding: 95 95 38
Width: 76
VWidth: 0
Flags: HW
HStem: 0 4<6 70>
LayerCount: 2
Fore
SplineSet
6 4 m 1
 70 4 l 1
 70 0 l 1
 6 0 l 1
 6 4 l 1
EndSplineSet
EndChar

StartChar: asterisk
Encoding: 42 42 39
Width: 76
VWidth: 0
Flags: HW
HStem: 28 40
VStem: 17 42
LayerCount: 2
Fore
SplineSet
38 68 m 1
 43 53 l 1
 59 53 l 1
 46 43 l 1
 51 28 l 1
 38 38 l 1
 25 28 l 1
 30 43 l 1
 17 53 l 1
 33 53 l 1
 38 68 l 1
EndSplineSet
EndChar

StartChar: hyphen
Encoding: 45 45 40
AltUni2: 0000ad.ffffffff.0
Width: 76
VWidth: 0
Flags: HW
HStem: 44 4<6 70>
LayerCount: 2
Fore
SplineSet
6 48 m 1
 70 48 l 1
 70 44 l 1
 6 44 l 1
 6 48 l 1
EndSplineSet
EndChar

StartChar: plus
Encoding: 43 43 41
Width: 76
VWidth: 0
Flags: HW
HStem: 44 4<6 32 44 70>
VStem: 32 12<14 44 48 78>
LayerCount: 2
Fore
SplineSet
32 78 m 1
 44 78 l 1
 44 48 l 1
 70 48 l 1
 70 44 l 1
 44 44 l 1
 44 14 l 1
 32 14 l 1
 32 44 l 1
 6 44 l 1
 6 48 l 1
 32 48 l 1
 32 78 l 1
EndSplineSet
EndChar

StartChar: C
Encoding: 67 67 42
Width: 76
VWidth: 0
Flags: HW
HStem: -1 4<26 50> 89 4<26 50>
VStem: 6 12<9 83> 58 12<9 16 76 83>
LayerCount: 2
Fore
SplineSet
70 16 m 0
 70 2 52 -1 38 -1 c 0
 24 -1 6 2 6 16 c 0
 6 30 6 62 6 76 c 0
 6 90 24 93 38 93 c 0
 52 93 70 90 70 76 c 0
 58 76 l 0
 58 86 48 89 38 89 c 0
 28 89 18 86 18 76 c 0
 18 62 18 30 18 16 c 0
 18 6 28 3 38 3 c 0
 48 3 58 6 58 16 c 0
 70 16 l 0
EndSplineSet
EndChar

StartChar: three
Encoding: 51 51 43
Width: 76
VWidth: 0
Flags: HW
HStem: -1 4<26 50> 46 4<38 50> 89 4<26 50>
VStem: 6 12<9 16 76 83> 58 12<9 40 56 83>
LayerCount: 2
Fore
SplineSet
54 48 m 1
 63 46 70 42 70 33 c 2
 70 16 l 2
 70 2 52 -1 38 -1 c 0
 24 -1 6 2 6 16 c 1
 18 16 l 1
 18 6 28 3 38 3 c 0
 48 3 58 6 58 16 c 2
 58 33 l 2
 58 43 48 46 38 46 c 1
 38 50 l 1
 48 50 58 53 58 63 c 2
 58 76 l 2
 58 86 48 89 38 89 c 0
 28 89 18 86 18 76 c 1
 6 76 l 1
 6 90 24 93 38 93 c 0
 52 93 70 90 70 76 c 2
 70 63 l 2
 70 54 63 50 54 48 c 1
EndSplineSet
EndChar

StartChar: six
Encoding: 54 54 44
Width: 76
VWidth: 0
Flags: HW
HStem: -1 4<26 50> 50 4<26 50> 89 4<26 50>
VStem: 6 12<9 44 51 83> 58 12<9 44 76 83>
LayerCount: 2
Fore
SplineSet
38 54 m 0
 52 54 70 51 70 37 c 0
 70 23 70 30 70 16 c 0
 70 2 52 -1 38 -1 c 0
 24 -1 6 2 6 16 c 0
 6 30 6 23 6 37 c 2
 6 76 l 2
 6 90 24 93 38 93 c 0
 52 93 70 90 70 76 c 1
 58 76 l 1
 58 86 48 89 38 89 c 0
 28 89 18 86 18 76 c 2
 18 51 l 1
 24 53 31 54 38 54 c 0
58 16 m 0
 58 30 58 23 58 37 c 0
 58 47 48 50 38 50 c 0
 28 50 18 47 18 37 c 2
 18 16 l 2
 18 6 28 3 38 3 c 0
 48 3 58 6 58 16 c 0
EndSplineSet
EndChar

StartChar: H
Encoding: 72 72 45
AltUni2: 000397.ffffffff.0
Width: 76
VWidth: 0
Flags: HW
HStem: 0 10G<6 18 58 70> 44 4<18 58> 82 10G<6 18 58 70>
VStem: 6 12<0 44 48 92> 58 12<0 44 48 92>
LayerCount: 2
Fore
SplineSet
6 92 m 1
 18 92 l 1
 18 48 l 1
 58 48 l 1
 58 92 l 1
 70 92 l 1
 70 48 l 1
 70 44 l 1
 70 0 l 1
 58 0 l 1
 58 44 l 1
 18 44 l 1
 18 0 l 1
 6 0 l 1
 6 44 l 1
 6 48 l 1
 6 92 l 1
EndSplineSet
EndChar

StartChar: A
Encoding: 65 65 46
AltUni2: 000391.ffffffff.0
Width: 76
VWidth: 0
Flags: HW
HStem: 0 10G<6 13 56 70> 27 4<19 49> 82 10G<31 41>
LayerCount: 2
Fore
SplineSet
70 0 m 1
 60 0 l 1
 50 27 l 1
 18 27 l 1
 10 0 l 1
 6 0 l 1
 34 92 l 1
 38 92 l 1
 70 0 l 1
49 31 m 1
 33 76 l 1
 19 31 l 1
 49 31 l 1
EndSplineSet
EndChar

StartChar: D
Encoding: 68 68 47
Width: 76
VWidth: 0
Flags: HW
HStem: 0 4<18 50> 88 4<18 50>
VStem: 6 12<4 88> 58 12<10 82>
LayerCount: 2
Fore
SplineSet
38 92 m 2
 52 92 70 89 70 75 c 2
 70 17 l 2
 70 3 52 0 38 0 c 2
 6 0 l 1
 6 92 l 1
 38 92 l 2
38 88 m 2
 18 88 l 1
 18 4 l 1
 38 4 l 2
 48 4 58 7 58 17 c 2
 58 75 l 2
 58 85 48 88 38 88 c 2
EndSplineSet
EndChar

StartChar: F
Encoding: 70 70 48
Width: 76
VWidth: 0
Flags: HW
HStem: 0 10G<6 18> 44 4<18 62> 88 4<18 70>
VStem: 6 12<0 44 48 88>
LayerCount: 2
Fore
SplineSet
18 88 m 1
 18 48 l 1
 62 48 l 1
 62 44 l 1
 18 44 l 1
 18 0 l 1
 6 0 l 1
 6 44 l 1
 6 48 l 1
 6 88 l 1
 6 92 l 1
 18 92 l 1
 70 92 l 1
 70 88 l 1
 18 88 l 1
EndSplineSet
EndChar

StartChar: E
Encoding: 69 69 49
AltUni2: 000395.ffffffff.0
Width: 76
VWidth: 0
Flags: HW
HStem: 0 4<18 70> 44 4<18 62> 88 4<18 70>
VStem: 6 12<4 44 48 88>
CounterMasks: 1 e0
LayerCount: 2
Fore
SplineSet
18 88 m 1
 18 48 l 1
 62 48 l 1
 62 44 l 1
 18 44 l 1
 18 4 l 1
 70 4 l 1
 70 0 l 1
 18 0 l 1
 6 0 l 1
 6 44 l 1
 6 48 l 1
 6 88 l 1
 6 92 l 1
 18 92 l 1
 70 92 l 1
 70 88 l 1
 18 88 l 1
EndSplineSet
EndChar

StartChar: eight
Encoding: 56 56 50
Width: 76
VWidth: 0
Flags: HW
HStem: -1 4<27 49> 46 4<27 49> 89 4<27 49>
VStem: 6 12<9 40 56 83> 58 12<9 40 56 83>
LayerCount: 2
Fore
SplineSet
38 89 m 0
 28 89 18 85 18 75 c 2
 18 64 l 2
 18 54 28 50 38 50 c 0
 48 50 58 54 58 64 c 2
 58 75 l 2
 58 85 48 89 38 89 c 0
38 93 m 0
 52 93 70 89 70 75 c 2
 70 64 l 2
 70 55 63 50 54 48 c 1
 63 46 70 41 70 32 c 0
 70 18 70 31 70 17 c 0
 70 3 52 -1 38 -1 c 0
 24 -1 6 3 6 17 c 0
 6 31 6 18 6 32 c 0
 6 41 13 46 22 48 c 1
 13 50 6 55 6 64 c 2
 6 75 l 2
 6 89 24 93 38 93 c 0
38 46 m 0
 28 46 18 42 18 32 c 0
 18 18 18 31 18 17 c 0
 18 7 28 3 38 3 c 0
 48 3 58 7 58 17 c 0
 58 31 58 18 58 32 c 0
 58 42 48 46 38 46 c 0
EndSplineSet
EndChar

StartChar: nine
Encoding: 57 57 51
Width: 76
VWidth: 0
Flags: HW
HStem: -1 4<26 50> 40 4<26 50> 89 4<26 50>
VStem: 6 12<9 16 50 83> 58 12<9 43 50 83>
LayerCount: 2
Fore
SplineSet
38 40 m 0
 24 40 6 43 6 57 c 0
 6 71 6 62 6 76 c 0
 6 90 24 93 38 93 c 0
 52 93 70 90 70 76 c 0
 70 62 70 69 70 55 c 2
 70 16 l 2
 70 2 52 -1 38 -1 c 0
 24 -1 6 2 6 16 c 1
 18 16 l 1
 18 6 28 3 38 3 c 0
 48 3 58 6 58 16 c 2
 58 43 l 1
 52 41 45 40 38 40 c 0
18 76 m 0
 18 62 18 71 18 57 c 0
 18 47 28 44 38 44 c 0
 48 44 58 47 58 57 c 2
 58 76 l 2
 58 86 48 89 38 89 c 0
 28 89 18 86 18 76 c 0
EndSplineSet
EndChar

StartChar: P
Encoding: 80 80 52
AltUni2: 0003a1.ffffffff.0
Width: 76
VWidth: 0
Flags: HW
HStem: 0 10G<6 18> 42 4<18 49> 88 4<18 49>
VStem: 6 12<0 42 46 88> 58 12<52 82>
LayerCount: 2
Fore
SplineSet
38 88 m 2
 18 88 l 1
 18 46 l 1
 38 46 l 2
 48 46 58 50 58 60 c 2
 58 74 l 2
 58 84 48 88 38 88 c 2
38 92 m 2
 52 92 70 88 70 74 c 2
 70 60 l 2
 70 46 52 42 38 42 c 2
 18 42 l 1
 18 0 l 1
 6 0 l 1
 6 44 l 1
 6 92 l 1
 38 92 l 2
EndSplineSet
EndChar

StartChar: B
Encoding: 66 66 53
AltUni2: 000392.ffffffff.0
Width: 76
VWidth: 0
Flags: HW
HStem: 0 4<18 49> 46 4<18 49> 88 4<18 49>
VStem: 6 12<4 46 50 88> 58 12<10 40 56 82>
LayerCount: 2
Fore
SplineSet
38 88 m 2
 18 88 l 1
 18 50 l 1
 38 50 l 2
 48 50 58 54 58 64 c 2
 58 74 l 2
 58 84 48 88 38 88 c 2
38 92 m 2
 52 92 70 88 70 74 c 2
 70 64 l 2
 70 55 63 50 54 48 c 1
 63 46 70 41 70 32 c 2
 70 18 l 2
 70 4 52 0 38 0 c 2
 6 0 l 1
 6 44 l 1
 6 48 l 1
 6 92 l 1
 38 92 l 2
38 46 m 2
 18 46 l 1
 18 4 l 1
 38 4 l 2
 48 4 58 8 58 18 c 2
 58 32 l 2
 58 42 48 46 38 46 c 2
EndSplineSet
EndChar

StartChar: at
Encoding: 64 64 54
Width: 76
VWidth: 0
Flags: HW
HStem: 0 4<35 70> 24 4<49 58> 68 4<49 58> 89 4<26 48>
VStem: 6 12<16 83> 32 12<32 64> 58 12<28 68 72 83>
CounterMasks: 1 0e
LayerCount: 2
Fore
SplineSet
70 0 m 1
 46 0 l 0
 32 0 6 2 6 25 c 0
 6 39 6 62 6 76 c 0
 6 90 24 93 38 93 c 0
 52 93 70 90 70 76 c 2
 70 24 l 1
 58 24 l 2
 44 24 32 28 32 42 c 2
 32 54 l 2
 32 68 44 72 58 72 c 1
 58 74 58 74 58 76 c 3
 58 85 46 89 38 89 c 0
 28 89 18 86 18 76 c 0
 18 62 18 39 18 25 c 0
 18 9 36 4 46 4 c 0
 70 4 l 1
 70 0 l 1
58 68 m 1
 48 68 44 64 44 54 c 2
 44 42 l 2
 44 32 48 28 58 28 c 1
 58 68 l 1
EndSplineSet
EndChar

StartChar: Z
Encoding: 90 90 55
AltUni2: 000396.ffffffff.0
Width: 76
VWidth: 0
Flags: HW
HStem: 0 4<21 70> 88 4<6 55>
LayerCount: 2
Fore
SplineSet
55 88 m 1
 6 88 l 1
 6 92 l 1
 58 92 l 1
 60 92 l 1
 70 92 l 1
 21 4 l 1
 70 4 l 1
 70 0 l 1
 18 0 l 1
 16 0 l 1
 6 0 l 1
 55 88 l 1
EndSplineSet
EndChar

StartChar: quotesingle
Encoding: 39 39 56
Width: 76
VWidth: 0
Flags: HW
HStem: 68 24<32 44>
VStem: 32 12<68 92>
LayerCount: 2
Fore
SplineSet
32 92 m 1
 44 92 l 1
 44 68 l 1
 32 68 l 1
 32 92 l 1
EndSplineSet
EndChar

StartChar: quotedbl
Encoding: 34 34 57
Width: 76
VWidth: 0
Flags: HW
HStem: 68 24<20 32 44 56>
VStem: 20 12<68 92> 44 12<68 92>
LayerCount: 2
Fore
SplineSet
44 92 m 1
 56 92 l 1
 56 68 l 1
 44 68 l 1
 44 92 l 1
32 92 m 1
 32 68 l 1
 20 68 l 1
 20 92 l 1
 32 92 l 1
EndSplineSet
EndChar

StartChar: period
Encoding: 46 46 58
Width: 76
VWidth: 0
Flags: HW
HStem: 0 12<33 43>
VStem: 32 12<1 11>
LayerCount: 2
Fore
SplineSet
32 6 m 0
 32 10 34 12 38 12 c 0
 42 12 44 10 44 6 c 0
 44 2 42 0 38 0 c 0
 34 0 32 2 32 6 c 0
EndSplineSet
EndChar

StartChar: exclam
Encoding: 33 33 59
Width: 76
VWidth: 0
Flags: HW
HStem: 0 12<33 43> 82 10G<32 44>
VStem: 32 12<1 11 20 92>
LayerCount: 2
Fore
SplineSet
32 92 m 1
 44 92 l 1
 44 20 l 1
 32 20 l 1
 32 92 l 1
EndSplineSet
Refer: 58 46 N 1 0 0 1 0 0 2
EndChar

StartChar: slash
Encoding: 47 47 61
Width: 76
VWidth: 0
Flags: HW
HStem: 0 10G<6 23> 82 10G<53 70>
LayerCount: 2
Fore
SplineSet
70 92 m 1
 17 0 l 1
 6 0 l 1
 59 92 l 1
 70 92 l 1
EndSplineSet
EndChar

StartChar: backslash
Encoding: 92 92 62
Width: 76
VWidth: 0
Flags: HW
HStem: 0 10G<53 70> 82 10G<6 23>
LayerCount: 2
Fore
SplineSet
6 92 m 1
 17 92 l 1
 70 0 l 1
 59 0 l 1
 6 92 l 1
EndSplineSet
EndChar

StartChar: k
Encoding: 107 107 63
Width: 76
VWidth: 0
Flags: HW
HStem: 0 10G<6 18 49 72> 58 10G<48 70> 82 10G<6 18>
VStem: 6 12<0 35 41 92>
LayerCount: 2
Fore
SplineSet
18 42 m 3
 18 41 18 41 20 41 c 0
 22 41 24 41 25 42 c 4
 63 68 l 1
 70 68 l 1
 25 38 l 1
 72 0 l 1
 61 0 l 1
 18 35 l 1
 18 0 l 1
 6 0 l 1
 6 92 l 1
 18 92 l 1
 18 92 18 62 18 42 c 3
EndSplineSet
Colour: ffff00
EndChar

StartChar: bar
Encoding: 124 124 64
Width: 76
VWidth: 0
Flags: HW
VStem: 32 12<-4 96>
LayerCount: 2
Fore
SplineSet
32 96 m 1
 44 96 l 1
 44 -4 l 1
 32 -4 l 1
 32 96 l 1
EndSplineSet
EndChar

StartChar: G
Encoding: 71 71 65
Width: 76
VWidth: 0
Flags: HW
HStem: -1 4<26 50> 42 4<32 58> 89 4<26 50>
VStem: 6 12<9 83> 58 12<9 42 76 83>
LayerCount: 2
Fore
SplineSet
70 16 m 2
 70 2 52 -1 38 -1 c 0
 24 -1 6 2 6 16 c 0
 6 30 6 62 6 76 c 0
 6 90 24 93 38 93 c 0
 52 93 70 90 70 76 c 1
 58 76 l 1
 58 86 48 89 38 89 c 0
 28 89 18 86 18 76 c 0
 18 62 18 30 18 16 c 0
 18 6 28 3 38 3 c 0
 48 3 58 6 58 16 c 2
 58 42 l 1
 32 42 l 1
 32 46 l 1
 58 46 l 1
 70 46 l 1
 70 16 l 2
EndSplineSet
EndChar

StartChar: R
Encoding: 82 82 66
Width: 76
VWidth: 0
Flags: HW
HStem: 0 10G<6 18 55 74> 42 4<18 31 42 49> 88 4<18 49>
VStem: 6 12<0 42 46 88> 58 12<52 82>
LayerCount: 2
Fore
SplineSet
38 92 m 2
 52 92 70 88 70 74 c 2
 70 60 l 2
 70 47 55 42 42 42 c 1
 74 0 l 1
 63 0 l 1
 31 42 l 1
 18 42 l 1
 18 0 l 1
 6 0 l 1
 6 44 l 1
 6 92 l 1
 38 92 l 2
38 88 m 2
 18 88 l 1
 18 46 l 1
 38 46 l 2
 48 46 58 50 58 60 c 2
 58 74 l 2
 58 84 48 88 38 88 c 2
EndSplineSet
EndChar

StartChar: parenleft
Encoding: 40 40 67
Width: 76
VWidth: 0
Flags: HW
HStem: -5 4<45 52> 93 4<45 52>
VStem: 20 12<12 80>
LayerCount: 2
Fore
SplineSet
52 -5 m 0
 38 -5 20 7 20 21 c 0
 20 35 20 57 20 71 c 0
 20 85 38 97 52 97 c 0
 52 93 l 0
 42 93 32 81 32 71 c 0
 32 57 32 35 32 21 c 0
 32 11 42 -1 52 -1 c 0
 52 -5 l 0
EndSplineSet
EndChar

StartChar: one
Encoding: 49 49 69
Width: 76
VWidth: 0
Flags: HW
HStem: 0 10G<33 45> 88 4<19 33>
VStem: 33 12<0 88>
LayerCount: 2
Fore
SplineSet
19 92 m 1
 45 92 l 1
 45 0 l 1
 33 0 l 1
 33 88 l 0
 19 88 l 0
 19 92 l 1
EndSplineSet
EndChar

StartChar: W
Encoding: 87 87 70
Width: 76
VWidth: 0
Flags: HW
HStem: 0 10G<23 31 50 58> 82 10G<6 18 38 45 64 70>
VStem: 6 10<88 92> 39 4<87 92>
LayerCount: 2
Fore
SplineSet
6 92 m 1
 16 92 l 1
 29 22 l 1
 39 92 l 1
 43 92 l 1
 55 22 l 1
 66 92 l 1
 70 92 l 1
 56 0 l 1
 52 0 l 1
 39 64 l 1
 29 0 l 1
 25 0 l 1
 6 92 l 1
EndSplineSet
EndChar

StartChar: X
Encoding: 88 88 71
AltUni2: 0003a7.ffffffff.0
Width: 76
VWidth: 0
Flags: HW
HStem: 0 10G<6 17 54 71> 82 10G<6 23 60 70>
LayerCount: 2
Fore
SplineSet
70 92 m 1
 42 47 l 1
 71 0 l 1
 59 0 l 1
 37 41 l 1
 10 0 l 1
 6 0 l 1
 35 44 l 1
 6 92 l 1
 17 92 l 1
 40 51 l 1
 66 92 l 1
 70 92 l 1
EndSplineSet
EndChar

StartChar: S
Encoding: 83 83 72
Width: 76
VWidth: 0
Flags: HW
HStem: -1 4<28 48> 46 4<27 49> 89 4<28 48>
VStem: 6 12<11 19 56 81> 58 12<11 40 73 81>
LayerCount: 2
Fore
SplineSet
38 50 m 0
 52 50 70 46 70 32 c 2
 70 19 l 2
 70 5 52 -1 38 -1 c 0
 24 -1 6 5 6 19 c 1
 18 19 l 1
 18 9 28 3 38 3 c 0
 48 3 58 9 58 19 c 2
 58 32 l 2
 58 42 48 46 38 46 c 0
 24 46 6 50 6 64 c 2
 6 73 l 2
 6 87 24 93 38 93 c 0
 52 93 70 87 70 73 c 1
 58 73 l 1
 58 83 48 89 38 89 c 0
 28 89 18 83 18 73 c 2
 18 64 l 2
 18 54 28 50 38 50 c 0
EndSplineSet
EndChar

StartChar: w
Encoding: 119 119 73
Width: 76
VWidth: 0
Flags: HW
HStem: 0 10G<22 31 49 58> 58 10G<6 18 37 45 64 70>
VStem: 6 10<65 68> 39 4<64 68>
LayerCount: 2
Fore
SplineSet
6 68 m 1
 16 68 l 1
 29 16 l 1
 39 68 l 1
 43 68 l 1
 55 16 l 1
 66 68 l 1
 70 68 l 1
 56 0 l 1
 52 0 l 1
 39 47 l 1
 29 0 l 1
 25 0 l 1
 6 68 l 1
EndSplineSet
EndChar

StartChar: bracketleft
Encoding: 91 91 74
Width: 76
VWidth: 0
Flags: HW
HStem: 0 4<30 58> 88 4<30 58>
VStem: 18 12<4 88>
LayerCount: 2
Fore
SplineSet
18 0 m 1
 18 92 l 1
 30 92 l 1
 58 92 l 1
 58 88 l 1
 30 88 l 1
 30 4 l 1
 58 4 l 1
 58 0 l 1
 30 0 l 1
 18 0 l 1
EndSplineSet
EndChar

StartChar: Q
Encoding: 81 81 76
Width: 76
VWidth: 0
Flags: HW
HStem: -1 4<26 46> 89 4<26 50>
VStem: 6 12<9 83> 58 12<9 83>
LayerCount: 2
Fore
SplineSet
38 89 m 0
 28 89 18 86 18 76 c 0
 18 62 18 30 18 16 c 0
 18 6 28 3 38 3 c 0
 48 3 58 6 58 16 c 0
 58 30 58 62 58 76 c 0
 58 86 48 89 38 89 c 0
38 93 m 0
 52 93 70 90 70 76 c 0
 70 62 70 30 70 16 c 0
 70 8 63 3 55 1 c 1
 68 -12 l 1
 57 -12 l 1
 46 -1 l 2
 43 -1 40 -1 38 -1 c 0
 24 -1 6 2 6 16 c 0
 6 30 6 62 6 76 c 0
 6 90 24 93 38 93 c 0
EndSplineSet
EndChar

StartChar: N
Encoding: 78 78 77
AltUni2: 00039d.ffffffff.0
Width: 76
VWidth: 0
Flags: HW
HStem: 0 10G<6 18 55 70> 82 10G<6 21 58 70>
VStem: 6 12<0 77> 58 12<15 92>
LayerCount: 2
Fore
SplineSet
70 92 m 1
 70 0 l 1
 61 0 l 1
 18 77 l 1
 18 53 18 24 18 0 c 1
 6 0 l 1
 6 92 l 1
 15 92 l 1
 58 15 l 1
 58 92 l 1
 70 92 l 1
EndSplineSet
Colour: ffff00
EndChar

StartChar: five
Encoding: 53 53 78
Width: 76
VWidth: 0
Flags: HW
HStem: -1 4<26 50> 50 4<21 50> 89 3<18 70>
VStem: 6 12<9 16 51 89> 58 12<9 44>
LayerCount: 2
Fore
SplineSet
58 16 m 2
 58 37 l 2
 58 47 48 50 38 50 c 0
 27 50 18 49 14 44 c 1
 6 44 l 1
 6 92 l 1
 70 92 l 1
 70 89 l 1
 18 89 l 1
 18 51 l 1
 24 53 31 54 38 54 c 0
 52 54 70 51 70 37 c 2
 70 16 l 2
 70 2 52 -1 38 -1 c 0
 24 -1 6 2 6 16 c 1
 18 16 l 1
 18 6 28 3 38 3 c 0
 48 3 58 6 58 16 c 2
EndSplineSet
EndChar

StartChar: seven
Encoding: 55 55 79
Width: 76
VWidth: 0
Flags: HW
HStem: 0 10G<28 42> 88 4<6 58>
LayerCount: 2
Fore
SplineSet
70 92 m 1
 39 0 l 1
 28 0 l 1
 58 88 l 1
 6 88 l 1
 6 92 l 1
 59 92 l 1
 61 92 l 1
 70 92 l 1
EndSplineSet
EndChar

StartChar: M
Encoding: 77 77 80
Width: 76
VWidth: 0
Flags: HW
HStem: 0 10G<6 18 34 45 58 70> 82 10G<6 18 63 70>
VStem: 6 12<0 55> 58 12<0 53> 66 4<89 92>
LayerCount: 2
Fore
SplineSet
70 92 m 1xe8
 70 0 l 1
 58 0 l 1
 58 53 l 1xf0
 42 0 l 1
 38 0 l 1
 18 55 l 1
 18 0 l 1
 6 0 l 1
 6 92 l 1
 14 92 l 1
 43 15 l 1
 66 92 l 1
 70 92 l 1xe8
EndSplineSet
Colour: ffff00
EndChar

StartChar: uni007F
Encoding: 127 127 81
Width: 76
VWidth: 0
Flags: HW
HStem: 0 4<10 66> 88 4<10 66>
VStem: 6 4<4 88> 66 4<4 88>
LayerCount: 2
Fore
SplineSet
10 88 m 1
 10 4 l 1
 66 4 l 1
 66 88 l 1
 10 88 l 1
6 92 m 1
 70 92 l 1
 70 0 l 1
 6 0 l 1
 6 92 l 1
EndSplineSet
EndChar

StartChar: K
Encoding: 75 75 82
AltUni2: 00039a.ffffffff.0
Width: 76
VWidth: 0
Flags: HW
HStem: 0 10G<6 18 52 72> 82 10G<6 18 53 70>
VStem: 6 12<0 46 52 92>
LayerCount: 2
Fore
SplineSet
18 55 m 3
 18 53 19 52 20 52 c 0
 22 52 25 54 27 56 c 4
 63 92 l 1
 70 92 l 1
 25 49 l 1
 72 0 l 1
 61 0 l 1
 18 46 l 1
 18 0 l 1
 6 0 l 1
 6 92 l 1
 18 92 l 1
 18 92 18 75 18 55 c 3
EndSplineSet
EndChar

StartChar: question
Encoding: 63 63 83
Width: 76
VWidth: 0
Flags: HW
HStem: 0 12<33 43> 89 4<26 50>
VStem: 6 12<76 83> 32 12<1 11 20 46> 58 12<56 83>
CounterMasks: 1 38
LayerCount: 2
Fore
SplineSet
44 46 m 5
 44 20 l 1
 32 20 l 1
 32 50 l 1
 38 50 l 2
 48 50 58 53 58 63 c 0
 58 77 58 62 58 76 c 0
 58 86 48 89 38 89 c 0
 28 89 18 86 18 76 c 1
 6 76 l 1
 6 90 24 93 38 93 c 0
 52 93 70 90 70 76 c 0
 70 62 70 77 70 63 c 0
 70 51 57 47 44 46 c 5
EndSplineSet
Refer: 58 46 N 1 0 0 1 0 0 2
EndChar

StartChar: less
Encoding: 60 60 87
Width: 76
VWidth: 0
Flags: HW
LayerCount: 2
Fore
SplineSet
71 12 m 1
 3 44 l 1
 3 48 l 1
 71 76 l 1
 71 72 l 1
 15 49 l 1
 71 23 l 1
 71 12 l 1
EndSplineSet
EndChar

StartChar: greater
Encoding: 62 62 88
Width: 76
VWidth: 0
Flags: HW
LayerCount: 2
Fore
SplineSet
5 80 m 1
 73 48 l 1
 73 44 l 1
 5 16 l 1
 5 20 l 1
 61 43 l 1
 5 69 l 1
 5 80 l 1
EndSplineSet
EndChar

StartChar: equal
Encoding: 61 61 89
Width: 76
VWidth: 0
Flags: HW
HStem: 32 4<6 70> 56 4<6 70>
LayerCount: 2
Fore
SplineSet
6 36 m 1
 70 36 l 1
 70 32 l 1
 6 32 l 1
 6 36 l 1
6 60 m 1
 70 60 l 1
 70 56 l 1
 6 56 l 1
 6 60 l 1
EndSplineSet
EndChar

StartChar: section
Encoding: 167 167 90
Width: 76
VWidth: 0
Flags: HW
HStem: -1 4<26 50> 27 4<26 58> 61 4<18 50> 89 4<26 50>
VStem: 6 12<9 16 37 61 65 83> 58 12<9 27 31 55 76 83>
LayerCount: 2
Fore
SplineSet
6 16 m 1
 18 16 l 1
 18 6 28 3 38 3 c 0
 48 3 58 6 58 16 c 2
 58 27 l 1
 38 27 l 0
 24 27 6 30 6 44 c 2
 6 48 l 1
 6 76 l 2
 6 90 24 93 38 93 c 0
 52 93 70 90 70 76 c 1
 58 76 l 1
 58 86 48 89 38 89 c 0
 28 89 18 86 18 76 c 2
 18 65 l 1
 38 65 l 0
 52 65 70 62 70 48 c 2
 70 44 l 1
 70 16 l 2
 70 2 52 -1 38 -1 c 0
 24 -1 6 2 6 16 c 1
18 48 m 2
 18 44 l 2
 18 34 28 31 38 31 c 0
 58 31 l 1
 58 44 l 2
 58 48 l 2
 58 58 48 61 38 61 c 0
 18 61 l 1
 18 48 l 2
EndSplineSet
EndChar

StartChar: four
Encoding: 52 52 91
Width: 76
VWidth: 0
Flags: HW
HStem: 0 10G<58 70> 46 4<18 58> 82 10G<6 18 58 70>
VStem: 6 12<50 92> 58 12<0 46 50 92>
LayerCount: 2
Fore
SplineSet
6 92 m 1
 18 92 l 1
 18 50 l 1
 58 50 l 1
 58 92 l 1
 70 92 l 1
 70 50 l 1
 70 46 l 1
 70 0 l 1
 58 0 l 1
 58 46 l 1
 18 46 l 1
 6 46 l 1
 6 50 l 1
 6 92 l 1
EndSplineSet
EndChar

StartChar: two
Encoding: 50 50 92
Width: 76
VWidth: 0
Flags: HW
HStem: 0 4<18 70> 42 4<27 49> 89 4<28 48>
VStem: 6 12<4 36 73 81> 58 12<52 81>
LayerCount: 2
Fore
SplineSet
38 46 m 0
 48 46 58 50 58 60 c 2
 58 73 l 2
 58 83 48 89 38 89 c 0
 28 89 18 83 18 73 c 1
 6 73 l 1
 6 87 24 93 38 93 c 0
 52 93 70 87 70 73 c 2
 70 60 l 2
 70 46 52 42 38 42 c 0
 28 42 18 38 18 28 c 2
 18 4 l 2
 70 4 l 1
 70 0 l 1
 6 0 l 2
 6 28 l 2
 6 42 24 46 38 46 c 0
EndSplineSet
EndChar

StartChar: comma
Encoding: 44 44 93
Width: 76
VWidth: 0
Flags: HW
HStem: -25 4<25 29>
VStem: 32 12<-17 12>
LayerCount: 2
Fore
SplineSet
44 12 m 1
 44 -7 l 2
 44 -21 33 -25 25 -25 c 0
 25 -21 l 0
 28 -21 32 -17 32 -7 c 2
 32 12 l 1
 44 12 l 1
EndSplineSet
EndChar

StartChar: asciicircum
Encoding: 94 94 95
Width: 76
VWidth: 0
Flags: HW
HStem: 53 39
VStem: 20 39
LayerCount: 2
Fore
SplineSet
59 53 m 1
 48 53 l 1
 35 80 l 1
 24 53 l 1
 20 53 l 1
 36 92 l 1
 40 92 l 1
 59 53 l 1
EndSplineSet
EndChar

StartChar: grave
Encoding: 96 96 96
Width: 76
VWidth: 0
Flags: HW
HStem: 68 24
VStem: 26 23
LayerCount: 2
Fore
SplineSet
26 92 m 1
 38 92 l 1
 50 68 l 1
 38 68 l 1
 26 92 l 1
EndSplineSet
EndChar

StartChar: braceleft
Encoding: 123 123 97
Width: 76
VWidth: 0
Flags: HW
HStem: -1 4<52 64> 46 4<12 23> 89 4<52 64>
VStem: 32 12<9 40 55 83>
LayerCount: 2
Fore
SplineSet
12 50 m 1
 22 50 32 52 32 62 c 2
 32 76 l 2
 32 90 50 93 64 93 c 1
 64 89 l 1
 54 89 44 86 44 76 c 2
 44 62 l 2
 44 54 38 50 30 48 c 1
 38 46 44 40 44 32 c 2
 44 16 l 2
 44 6 54 3 64 3 c 1
 64 -1 l 1
 50 -1 32 2 32 16 c 2
 32 32 l 2
 32 42 22 46 12 46 c 1
 12 50 l 1
EndSplineSet
EndChar

StartChar: braceright
Encoding: 125 125 98
Width: 76
VWidth: 0
Flags: HW
HStem: -1 4<12 24> 46 4<53 64> 89 4<12 24>
VStem: 32 12<9 40 55 83>
LayerCount: 2
Fore
SplineSet
64 50 m 1
 64 46 l 1
 54 46 44 42 44 32 c 2
 44 16 l 2
 44 2 26 -1 12 -1 c 1
 12 3 l 1
 22 3 32 6 32 16 c 2
 32 32 l 2
 32 40 38 46 46 48 c 1
 38 50 32 54 32 62 c 2
 32 76 l 2
 32 86 22 89 12 89 c 1
 12 93 l 1
 26 93 44 90 44 76 c 2
 44 62 l 2
 44 52 54 50 64 50 c 1
EndSplineSet
EndChar

StartChar: asciitilde
Encoding: 126 126 99
Width: 76
VWidth: 0
Flags: HW
HStem: 35 3<47 55> 54 3<21 29>
VStem: 6 12<42 49> 58 12<43 50>
LayerCount: 2
Fore
SplineSet
45 42 m 2
 46 40 47 38 51 38 c 3
 58 38 58 48 58 50 c 1
 70 50 l 1
 70 45 64 35 51 35 c 0
 40 35 36 37 34 42 c 1
 31 50 l 2
 30 52 29 54 25 54 c 0
 18 54 18 44 18 42 c 1
 6 42 l 1
 6 47 12 57 25 57 c 0
 36 57 40 55 42 50 c 1
 45 42 l 2
EndSplineSet
EndChar

StartChar: copyright
Encoding: 169 169 100
Width: 76
VWidth: 0
Flags: HW
HStem: -1 4<26 50> 11 4<35 41> 77 4<35 41> 89 4<26 50>
VStem: 6 12<9 83> 22 12<15 77> 42 12<15 28 64 77> 58 12<9 83>
LayerCount: 2
Fore
SplineSet
54 28 m 0
 54 14 52 11 38 11 c 0
 24 11 22 14 22 28 c 0
 22 42 22 50 22 64 c 0
 22 78 24 81 38 81 c 0
 52 81 54 78 54 64 c 0
 42 64 l 0
 42 74 42 77 38 77 c 0
 34 77 34 74 34 64 c 0
 34 50 34 42 34 28 c 0
 34 18 34 15 38 15 c 0
 42 15 42 18 42 28 c 0
 54 28 l 0
EndSplineSet
Refer: 30 79 N 1 0 0 1 0 0 2
EndChar

StartChar: dollar
Encoding: 36 36 101
Width: 76
VWidth: 0
Flags: HW
HStem: 0 15<32 44> 11 4<26 32 44 48> 77 4<23 32 44 50>
VStem: 6 12<21 28 61 74> 32 12<0 11 81 92> 58 12<22 37 64 71>
CounterMasks: 1 1c
LayerCount: 2
Fore
SplineSet
32 92 m 1xbc
 44 92 l 1
 44 81 l 1
 57 81 70 76 70 64 c 1
 58 64 l 1
 58 74 48 77 38 77 c 0
 28 77 18 77 18 67 c 0
 18 59 26 56 38 52 c 0
 51 47 70 43 70 29 c 0
 70 17 57 11 44 11 c 1x7c
 44 0 l 1
 32 0 l 1xbc
 32 11 l 5x7c
 19 12 6 16 6 28 c 1
 18 28 l 1
 18 18 28 15 38 15 c 0
 48 15 58 20 58 29 c 0
 58 39 48 43 38 47 c 0
 25 51 6 57 6 67 c 0
 6 79 19 81 32 81 c 1
 32 92 l 1xbc
EndSplineSet
EndChar

StartChar: percent
Encoding: 37 37 102
Width: 76
VWidth: 0
Flags: HW
HStem: 0 4<51 57> 0 10G<6 23> 30 4<51 57> 58 4<19 25> 82 10G<53 70> 88 4<19 25>
VStem: 6 12<62 88> 26 12<62 88> 38 12<4 30> 58 12<4 30>
LayerCount: 2
Fore
SplineSet
58 17 m 0xb2c0
 58 27 58 30 54 30 c 0
 50 30 50 27 50 17 c 0
 50 7 50 4 54 4 c 0
 58 4 58 7 58 17 c 0xb2c0
70 17 m 0
 70 3 68 0 54 0 c 0
 40 0 38 3 38 17 c 0
 38 31 40 34 54 34 c 0
 68 34 70 31 70 17 c 0
26 75 m 0x3740
 26 85 26 88 22 88 c 0
 18 88 18 85 18 75 c 0
 18 65 18 62 22 62 c 0
 26 62 26 65 26 75 c 0x3740
38 75 m 0
 38 61 36 58 22 58 c 0
 8 58 6 61 6 75 c 0
 6 89 8 92 22 92 c 0
 36 92 38 89 38 75 c 0
EndSplineSet
Refer: 61 47 N 1 0 0 1 0 0 2
EndChar

StartChar: numbersign
Encoding: 35 35 103
Width: 76
VWidth: 0
Flags: HW
HStem: 0 10G<20 32 44 56> 28 4<6 20 32 44 56 70> 60 4<6 20 32 44 56 70> 82 10G<20 32 44 56>
VStem: 20 12<0 28 32 60 64 92> 44 12<0 28 32 60 64 92>
LayerCount: 2
Fore
SplineSet
44 92 m 1
 56 92 l 1
 56 64 l 1
 70 64 l 1
 70 60 l 1
 56 60 l 1
 56 32 l 1
 70 32 l 1
 70 28 l 1
 56 28 l 1
 56 0 l 1
 44 0 l 1
 44 28 l 1
 32 28 l 1
 32 0 l 1
 20 0 l 1
 20 28 l 1
 6 28 l 1
 6 32 l 1
 20 32 l 1
 20 60 l 1
 6 60 l 1
 6 64 l 1
 20 64 l 1
 20 92 l 1
 32 92 l 1
 32 64 l 1
 44 64 l 1
 44 92 l 1
32 32 m 1
 44 32 l 1
 44 60 l 1
 32 60 l 1
 32 32 l 1
EndSplineSet
EndChar

StartChar: circumflex
Encoding: 710 710 104
Width: 76
VWidth: 0
Flags: HW
HStem: 96 7
VStem: 20 39
LayerCount: 2
Fore
SplineSet
59 96 m 1
 48 96 l 1
 36 101 l 1
 24 96 l 1
 20 96 l 1
 36 103 l 1
 42 103 l 1
 59 96 l 1
EndSplineSet
EndChar

StartChar: uni02CA
Encoding: 714 714 109
AltUni2: 0000b4.ffffffff.0
Width: 76
VWidth: 0
Flags: HW
HStem: 96 7
VStem: 32 23
LayerCount: 2
Fore
SplineSet
55 103 m 5
 43 96 l 5
 32 96 l 5
 44 103 l 5
 55 103 l 5
EndSplineSet
EndChar

StartChar: uni02CB
Encoding: 715 715 110
Width: 76
VWidth: 0
Flags: HW
HStem: 96 7
VStem: 26 23
LayerCount: 2
Fore
SplineSet
26 103 m 5
 37 103 l 5
 49 96 l 5
 38 96 l 5
 26 103 l 5
EndSplineSet
EndChar

StartChar: uni02C9
Encoding: 713 713 112
Width: 76
VWidth: 0
Flags: HW
HStem: 96 4<6 70>
LayerCount: 2
Fore
SplineSet
6 96 m 1
 6 100 l 1
 70 100 l 1
 70 96 l 1
 6 96 l 1
EndSplineSet
EndChar

StartChar: tilde
Encoding: 732 732 115
Width: 76
VWidth: 0
Flags: HW
HStem: 96 3<47 56> 104 3<20 30>
VStem: 6 12<96 102> 58 12<101 107>
LayerCount: 2
Fore
SplineSet
25 107 m 0
 45 107 44 99 51 99 c 3
 58 99 58 105 58 107 c 1
 70 107 l 1
 70 102 64 96 51 96 c 0
 34 96 33 104 25 104 c 0
 18 104 18 98 18 96 c 1
 6 96 l 1
 6 101 12 107 25 107 c 0
EndSplineSet
EndChar

StartChar: hungarumlaut
Encoding: 733 733 116
Width: 76
VWidth: 0
Flags: HW
HStem: 96 7
VStem: 22 40
LayerCount: 2
Fore
SplineSet
62 103 m 1
 50 96 l 1
 38 96 l 1
 50 103 l 1
 62 103 l 1
44 103 m 1
 32 96 l 1
 22 96 l 1
 34 103 l 1
 44 103 l 1
EndSplineSet
EndChar

StartChar: ring
Encoding: 730 730 137
Width: 76
VWidth: 0
Flags: HW
HStem: 96 3<35 41> 105 3<35 41>
VStem: 32 3<99 105> 41 3<99 105>
LayerCount: 2
Fore
SplineSet
32 102 m 0
 32 106 34 108 38 108 c 0
 42 108 44 106 44 102 c 0
 44 98 42 96 38 96 c 0
 34 96 32 98 32 102 c 0
35 102 m 0
 35 100 36 99 38 99 c 0
 40 99 41 100 41 102 c 0
 41 104 40 105 38 105 c 0
 36 105 35 104 35 102 c 0
EndSplineSet
EndChar

StartChar: dcaron
Encoding: 271 271 176
Width: 76
VWidth: 0
Flags: HW
HStem: -1 4<23 41> 0 10G<46 58> 55 4<61 65> 64 4<23 41> 82 10G<46 58>
VStem: 6 12<7 60> 46 12<0 2 7 60 65 92> 68 12<63 92>
LayerCount: 2
Fore
SplineSet
32 -1 m 0xbf
 18 -1 6 3 6 17 c 0
 6 31 6 36 6 50 c 0
 6 64 18 68 32 68 c 0
 39 68 40 67 46 65 c 2
 46 92 l 1
 58 92 l 1
 58 50 l 1
 58 17 l 1
 58 0 l 1
 46 0 l 1x7f
 46 2 l 2
 40 0 39 -1 32 -1 c 0xbf
46 17 m 2
 46 50 l 2
 46 60 42 64 32 64 c 0
 22 64 18 60 18 50 c 0
 18 36 18 31 18 17 c 0
 18 7 22 3 32 3 c 0xbf
 42 3 46 7 46 17 c 2
EndSplineSet
Refer: 93 44 N 1 0 0 1 36 80 2
EndChar

StartChar: uni0122
Encoding: 290 290 187
Width: 76
VWidth: 0
Flags: HW
HStem: -45 4<28 32> -1 4<26 50> 42 4<32 58> 89 4<26 50>
VStem: 6 12<9 83> 36 12<-37 -8> 58 12<9 42 76 83>
LayerCount: 2
Fore
SplineSet
47.5 2 m 1
 47.5 -7 l 2
 47.5 -21 36.5 -25 28.5 -25 c 1
 28.5 -21 l 2
 31.5 -21 35.5 -17 35.5 -7 c 2
 35.5 2 l 1
 47.5 2 l 1
EndSplineSet
Refer: 65 71 S 1 0 0 1 0 0 3
EndChar

StartChar: jcircumflex
Encoding: 309 309 196
Width: 76
VWidth: 0
Flags: HW
HStem: -25 4<23 33> 64 4<22 36> 76 12<37 47> 95 7
VStem: 10 12<-20 -11> 22 39 36 12<-17 64 77 87>
LayerCount: 2
Fore
SplineSet
48 -7 m 2
 48 -21 37 -25 29 -25 c 0
 20 -25 10 -25 10 -11 c 1
 22 -11 l 1
 22 -21 26 -21 28 -21 c 0
 29 -21 l 0
 32 -21 36 -17 36 -7 c 2
 36 64 l 1
 22 64 l 1
 22 68 l 1
 36 68 l 1
 48 68 l 1
 48 -7 l 2
EndSplineSet
Refer: 104 710 N 1 0 0 1 2 -20 2
EndChar

StartChar: uni0136
Encoding: 310 310 197
Width: 76
VWidth: 0
Flags: HW
HStem: -25 4<30 33> 0 10G<6 18 52 72> 82 10G<6 18 53 70>
VStem: 6 12<0 46 52 92> 36 12<-17 -4>
LayerCount: 2
Fore
SplineSet
48 -4 m 1
 48 -7 l 2
 48 -21 38 -25 30 -25 c 0
 30 -21 l 0
 33 -21 36 -17 36 -7 c 2
 36 -4 l 1
 41 -4 46 -4 48 -4 c 1
EndSplineSet
Refer: 82 75 N 1 0 0 1 0 0 3
EndChar

StartChar: uni0137
Encoding: 311 311 198
Width: 76
VWidth: 0
Flags: HW
HStem: -25 4<30 33> 0 10G<6 18 49 72> 58 10G<48 70> 82 10G<6 18>
VStem: 6 12<0 35 41 92> 36 12<-17 -4>
LayerCount: 2
Fore
SplineSet
48 -4 m 1
 48 -7 l 2
 48 -21 38 -25 30 -25 c 0
 30 -21 l 0
 33 -21 36 -17 36 -7 c 2
 36 -4 l 1
 48 -4 l 1
EndSplineSet
Refer: 63 107 N 1 0 0 1 0 0 3
EndChar

StartChar: uni013B
Encoding: 315 315 201
Width: 76
VWidth: 0
Flags: HW
HStem: -25 4<28 32> 0 4<18 70> 82 10G<6 18>
VStem: 6 12<4 92> 36 12<-17 -4>
LayerCount: 2
Fore
SplineSet
48 -4 m 5
 48 -7 l 2
 48 -21 36 -25 28 -25 c 0
 28 -21 l 0
 31 -21 36 -17 36 -7 c 2
 36 -4 l 5
 48 -4 l 5
EndSplineSet
Refer: 20 76 N 1 0 0 1 0 0 3
EndChar

StartChar: uni013C
Encoding: 316 316 202
Width: 76
VWidth: 0
Flags: HW
HStem: -25 4<40 44> 0 4<46 59> 88 4<18 32>
VStem: 32 12<5 88> 47 12<-17 -4>
LayerCount: 2
Fore
SplineSet
59 -4 m 1
 59 -7 l 2
 59 -21 48 -25 40 -25 c 0
 40 -21 l 0
 43 -21 47 -17 47 -7 c 2
 47 -4 l 1
 59 -4 l 1
EndSplineSet
Refer: 15 108 N 1 0 0 1 0 0 3
EndChar

StartChar: uni0145
Encoding: 325 325 207
Width: 76
VWidth: 0
Flags: HW
HStem: -44 4<28 32> 0 10G<6 18 55 70> 82 10G<6 21 58 70>
VStem: 6 12<0 77> 36 12<-36 -7> 58 12<15 92>
LayerCount: 2
Fore
SplineSet
47.5 0 m 5
 47.5 -7 l 2
 47.5 -21 36.5 -25 28.5 -25 c 0
 28.5 -21 l 0
 31.5 -21 35.5 -17 35.5 -7 c 2
 35.5 0 l 5
 47.5 0 l 5
EndSplineSet
Refer: 77 78 N 1 0 0 1 0 0 3
EndChar

StartChar: uni0146
Encoding: 326 326 208
Width: 76
VWidth: 0
Flags: HW
HStem: -44 4<28 32> 0 10G<6 18 58 70> 64 4<29 52>
VStem: 6 12<0 54 62 68> 36 12<-36 -7> 58 12<0 54>
LayerCount: 2
Fore
SplineSet
47.5 0 m 5
 47.5 -7 l 2
 47.5 -21 36.5 -25 28.5 -25 c 0
 28.5 -21 l 0
 31.5 -21 35.5 -17 35.5 -7 c 2
 35.5 0 l 5
 47.5 0 l 5
EndSplineSet
Refer: 0 110 N 1 0 0 1 0 0 3
EndChar

StartChar: uni0156
Encoding: 342 342 217
Width: 76
VWidth: 0
Flags: HW
HStem: -44 4<30 34> 0 10G<6 18 55 74> 42 4<18 31 42 49> 88 4<18 49>
VStem: 6 12<0 42 46 88> 38 12<-36 -7> 58 12<52 82>
LayerCount: 2
Fore
SplineSet
49.5 0 m 5
 49.5 -7 l 2
 49.5 -21 38.5 -25 30.5 -25 c 0
 30.5 -21 l 0
 33.5 -21 37.5 -17 37.5 -7 c 2
 37.5 0 l 5
 49.5 0 l 5
EndSplineSet
Refer: 66 82 N 1 0 0 1 0 0 3
EndChar

StartChar: uni0157
Encoding: 343 343 218
Width: 76
VWidth: 0
Flags: HW
HStem: -44 4<2 6> 0 10G<6 18> 64 4<29 52>
VStem: 6 12<0 54 62 68> 10 12<-36 -7>
LayerCount: 2
Fore
SplineSet
44 0 m 5
 44 -7 l 2
 44 -21 33 -25 25 -25 c 0
 25 -21 l 0
 28 -21 32 -17 32 -7 c 2
 32 0 l 5
 44 0 l 5
EndSplineSet
Refer: 18 114 N 1 0 0 1 0 0 3
EndChar

StartChar: Ohorn
Encoding: 416 416 248
Width: 76
VWidth: 0
Flags: HW
HStem: -1 4<26 50> 89 4<26 50>
VStem: 6 12<9 83> 58 12<9 69> 68 12<84 103>
LayerCount: 2
Fore
SplineSet
80 103 m 1xe8
 80 84 l 2xe8
 80 75 75 70 70 68 c 1
 70 16 l 2xf0
 70 2 52 -1 38 -1 c 0
 24 -1 6 2 6 16 c 0
 6 30 6 62 6 76 c 0
 6 90 24 93 38 93 c 0
 49 93 63 91 68 83 c 1
 68 84 l 2
 68 103 l 1
 80 103 l 1xe8
38 89 m 0
 28 89 18 86 18 76 c 0
 18 62 18 30 18 16 c 0
 18 6 28 3 38 3 c 0
 48 3 58 6 58 16 c 0
 58 30 58 62 58 76 c 0xf0
 58 86 48 89 38 89 c 0
EndSplineSet
EndChar

StartChar: ohorn
Encoding: 417 417 249
Width: 76
VWidth: 0
Flags: HW
HStem: -1 4<27 49> 65 4<27 49> 82 10G<64 76>
VStem: 6 12<9 59> 58 12<9 59> 64 12<72 92>
LayerCount: 2
Fore
SplineSet
76 92 m 1xf4
 76 82 l 2xf4
 76 70 68 65 61 64 c 1
 67 61 70 57 70 51 c 0
 70 37 70 31 70 17 c 0xf8
 70 3 52 -1 38 -1 c 0
 24 -1 6 3 6 17 c 0
 6 31 6 37 6 51 c 0
 6 65 24 69 38 69 c 0
 42 69 46 68 50 68 c 2
 57 68 l 2
 60 68 64 72 64 82 c 2
 64 92 l 1
 76 92 l 1xf4
38 65 m 0
 28 65 18 61 18 51 c 0
 18 37 18 31 18 17 c 0
 18 7 28 3 38 3 c 0
 48 3 58 7 58 17 c 0
 58 31 58 37 58 51 c 0xf8
 58 61 48 65 38 65 c 0
EndSplineSet
EndChar

StartChar: uni01D5
Encoding: 469 469 258
Width: 76
VWidth: 0
Flags: HW
HStem: -1 4<27 49> 82 10G<6 18 58 70> 96 12<25 35 41 51> 119 4<6 70>
VStem: 6 12<9 92> 24 12<97 107> 40 12<97 107> 58 12<9 92>
LayerCount: 2
Fore
SplineSet
39.9501953125 93.01171875 m 4
 39.9501953125 97.0185546875 41.947265625 99.0224609375 45.9404296875 99.0224609375 c 4
 49.9345703125 99.0224609375 51.931640625 97.0185546875 51.931640625 93.01171875 c 4
 51.931640625 89.00390625 49.9345703125 87 45.9404296875 87 c 4
 41.947265625 87 39.9501953125 89.00390625 39.9501953125 93.01171875 c 4
23.9501953125 93.01171875 m 4
 23.9501953125 97.0185546875 25.947265625 99.0224609375 29.9404296875 99.0224609375 c 4
 33.9345703125 99.0224609375 35.931640625 97.0185546875 35.931640625 93.01171875 c 4
 35.931640625 89.00390625 33.9345703125 87 29.9404296875 87 c 4
 25.947265625 87 23.9501953125 89.00390625 23.9501953125 93.01171875 c 4
58 92 m 1
 70 92 l 1
 70 78 70 31 70 17 c 0
 70 3 52 -1 38 -1 c 0
 24 -1 6 3 6 17 c 2
 6 92 l 1
 18 92 l 1
 18 17 l 2
 18 7 28 3 38 3 c 0
 48 3 58 7 58 17 c 0
 58 31 58 78 58 92 c 1
EndSplineSet
Refer: 112 713 N 1 0 0 1 0 7 2
EndChar

StartChar: uni01D7
Encoding: 471 471 260
Width: 76
VWidth: 0
Flags: HW
HStem: -1 4<27 49> 82 10G<6 18 58 70> 96 12<25 35 41 51> 119 7
VStem: 6 12<9 92> 24 12<97 107> 40 12<97 107> 58 12<9 92> 70 23
LayerCount: 2
Fore
SplineSet
39.9501953125 91.01171875 m 0
 39.9501953125 95.0185546875 41.947265625 97.0224609375 45.9404296875 97.0224609375 c 0
 49.9345703125 97.0224609375 51.931640625 95.0185546875 51.931640625 91.01171875 c 0
 51.931640625 87.00390625 49.9345703125 85 45.9404296875 85 c 0
 41.947265625 85 39.9501953125 87.00390625 39.9501953125 91.01171875 c 0
23.9501953125 91.01171875 m 0
 23.9501953125 95.0185546875 25.947265625 97.0224609375 29.9404296875 97.0224609375 c 0
 33.9345703125 97.0224609375 35.931640625 95.0185546875 35.931640625 91.01171875 c 0
 35.931640625 87.00390625 33.9345703125 85 29.9404296875 85 c 0
 25.947265625 85 23.9501953125 87.00390625 23.9501953125 91.01171875 c 0
58 92 m 1
 70 92 l 1
 70 78 70 31 70 17 c 0
 70 3 52 -1 38 -1 c 0
 24 -1 6 3 6 17 c 2
 6 92 l 1
 18 92 l 1
 18 17 l 2
 18 7 28 3 38 3 c 0
 48 3 58 7 58 17 c 0
 58 31 58 78 58 92 c 1
EndSplineSet
Refer: 109 714 N 1 0 0 1 -5 5 2
EndChar

StartChar: IJ
Encoding: 306 306 297
Width: 152
VWidth: 0
Flags: HW
HStem: -1 4<39 52> 0 10G<6 18> 82 10G<6 18 58 70>
VStem: 6 12<0 92> 22 12<7 17> 58 12<7 92>
LayerCount: 2
Fore
SplineSet
6 92 m 1x7c
 18 92 l 1
 18 0 l 1
 6 0 l 1
 6 92 l 1x7c
58 92 m 0
 70 92 l 0
 70 78 70 31 70 17 c 0
 70 3 60 -1 46 -1 c 0
 32 -1 22 3 22 17 c 0
 34 17 l 0
 34 7 39 3 46 3 c 0xbc
 52 3 58 7 58 17 c 0
 58 31 58 78 58 92 c 0
EndSplineSet
EndChar

StartChar: ij
Encoding: 307 307 298
Width: 76
VWidth: 0
Flags: HW
HStem: -25 4<32 42> 0 10G<19 31> 64 4<31 45> 76 12<20 30 46 56>
VStem: 19 12<-20 -11 0 64 77 87> 45 12<-17 64 77 87>
LayerCount: 2
Fore
SplineSet
19 82 m 0
 19 86 21 88 25 88 c 0
 29 88 31 86 31 82 c 0
 31 78 29 76 25 76 c 0
 21 76 19 78 19 82 c 0
45 82 m 0
 45 86 47 88 51 88 c 0
 55 88 57 86 57 82 c 0
 57 78 55 76 51 76 c 0
 47 76 45 78 45 82 c 0
57 -7 m 2
 57 -21 46 -25 38 -25 c 0
 29 -25 19 -25 19 -11 c 1
 31 -11 l 1
 31 -21 34 -21 36 -21 c 0
 38 -21 l 0
 41 -21 45 -17 45 -7 c 2
 45 64 l 1
 31 64 l 1
 31 0 l 1
 19 0 l 1
 19 64 l 1
 19 68 l 1
 31 68 l 1
 45 68 l 1
 57 68 l 1
 57 -7 l 2
EndSplineSet
EndChar

StartChar: Dcroat
Encoding: 272 272 299
AltUni2: 0000d0.ffffffff.0 000189.ffffffff.0
Width: 76
VWidth: 0
Flags: HW
HStem: 0 4<18 50> 46 4<0 6 18 38> 88 4<18 50>
VStem: 6 12<4 46 50 88> 58 12<10 82>
LayerCount: 2
Fore
SplineSet
38 88 m 2
 18 88 l 1
 18 50 l 1
 38 50 l 1
 38 46 l 1
 18 46 l 1
 18 4 l 1
 38 4 l 2
 48 4 58 7 58 17 c 2
 58 75 l 2
 58 85 48 88 38 88 c 2
38 92 m 2
 52 92 70 89 70 75 c 2
 70 17 l 2
 70 3 52 0 38 0 c 2
 6 0 l 1
 6 46 l 1
 0 46 l 1
 0 50 l 1
 6 50 l 1
 6 92 l 1
 38 92 l 2
EndSplineSet
EndChar

StartChar: dcroat
Encoding: 273 273 300
Width: 76
VWidth: 0
Flags: HW
HStem: -1 4<27 49> 0 10G<58 70> 64 4<27 49> 78 4<38 58 70 76> 82 10G<58 70>
VStem: 6 12<9 58> 58 12<0 2 9 58 65 78 82 92>
LayerCount: 2
Fore
SplineSet
58 17 m 2xa6
 58 50 l 2
 58 60 48 64 38 64 c 0
 28 64 18 60 18 50 c 0
 18 36 18 31 18 17 c 0
 18 7 28 3 38 3 c 0
 48 3 58 7 58 17 c 2xa6
38 -1 m 0
 24 -1 6 3 6 17 c 0
 6 31 6 36 6 50 c 0
 6 64 24 68 38 68 c 0
 45 68 52 67 58 65 c 1
 58 78 l 1
 38 78 l 1
 38 82 l 1
 58 82 l 1xb6
 58 92 l 1
 70 92 l 1x2e
 70 82 l 1
 76 82 l 1
 76 78 l 1
 70 78 l 1
 70 50 l 1
 70 17 l 1
 70 0 l 1
 58 0 l 1x76
 58 2 l 1
 52 0 45 -1 38 -1 c 0
EndSplineSet
EndChar

StartChar: Oslash
Encoding: 216 216 301
Width: 76
VWidth: 0
Flags: HW
HStem: -1 4<26 50> 0 10G<0 14> 82 10G<62 76> 89 4<26 50>
VStem: 6 12<25 83> 58 12<9 67>
LayerCount: 2
Fore
SplineSet
38 89 m 0x1c
 28 89 18 86 18 76 c 2
 18 25 l 1
 57 81 l 1
 54 87 46 89 38 89 c 0x1c
62 88 m 1
 65 92 l 1
 76 92 l 1
 69 82 l 2
 70 80 70 78 70 76 c 0
 70 62 70 30 70 16 c 0
 70 2 52 -1 38 -1 c 0xac
 30 -1 21 0 14 4 c 1
 11 0 l 1
 0 0 l 1x4c
 7 10 l 2
 6 12 6 14 6 16 c 0
 6 30 6 62 6 76 c 0
 6 90 24 93 38 93 c 0
 46 93 55 92 62 88 c 1
19 11 m 1
 22 5 30 3 38 3 c 0
 48 3 58 6 58 16 c 2
 58 67 l 1
 19 11 l 1
EndSplineSet
EndChar

StartChar: ordmasculine
Encoding: 186 186 302
Width: 76
VWidth: 0
Flags: HW
HStem: 23 4<27 49> 89 4<27 49>
VStem: 6 12<33 83> 58 12<33 83>
LayerCount: 2
Fore
SplineSet
38 93 m 0
 52 93 58 89 58 75 c 0
 58 61 58 55 58 41 c 0
 58 27 52 23 38 23 c 0
 24 23 18 27 18 41 c 0
 18 55 18 61 18 75 c 0
 18 89 24 93 38 93 c 0
38 89 m 0
 31 89 30 85 30 75 c 0
 30 61 30 55 30 41 c 0
 30 31 31 27 38 27 c 0
 45 27 46 31 46 41 c 0
 46 55 46 61 46 75 c 0
 46 85 45 89 38 89 c 0
EndSplineSet
EndChar

StartChar: degree
Encoding: 176 176 303
Width: 76
VWidth: 0
Flags: HW
HStem: 58 4<35 41> 88 4<35 41>
VStem: 22 12<62 88> 42 12<62 88>
LayerCount: 2
Fore
SplineSet
42 75 m 0
 42 85 42 88 38 88 c 0
 34 88 34 85 34 75 c 0
 34 65 34 62 38 62 c 0
 42 62 42 65 42 75 c 0
54 75 m 0
 54 61 52 58 38 58 c 0
 24 58 22 61 22 75 c 0
 22 89 24 92 38 92 c 0
 52 92 54 89 54 75 c 0
EndSplineSet
EndChar

StartChar: cent
Encoding: 162 162 305
Width: 76
VWidth: 0
Flags: HW
HStem: 11 4<26 32 44 50> 77 15<32 44> 77 4<26 32 44 50>
VStem: 6 12<21 71> 32 12<0 11 81 92> 58 12<21 28 64 71>
CounterMasks: 1 1c
LayerCount: 2
Fore
SplineSet
32 92 m 1xdc
 44 92 l 1xdc
 44 81 l 1xbc
 57 81 70 76 70 64 c 1
 58 64 l 1
 58 74 48 77 38 77 c 0xdc
 28 77 18 74 18 64 c 0
 18 50 18 42 18 28 c 0
 18 18 28 15 38 15 c 0
 48 15 58 18 58 28 c 1
 70 28 l 1
 70 16 57 11 44 11 c 1
 44 0 l 1
 32 0 l 1
 32 11 l 1
 19 11 6 16 6 28 c 0
 6 42 6 50 6 64 c 0
 6 76 19 80 32 81 c 5xbc
 32 92 l 1xdc
EndSplineSet
EndChar

StartChar: Thorn
Encoding: 222 222 307
Width: 76
VWidth: 0
Flags: HW
HStem: 0 10G<6 18> 22 4<18 49> 68 4<18 49> 82 10G<6 18>
VStem: 6 12<0 22 26 68 72 92> 58 12<32 62>
LayerCount: 2
Fore
SplineSet
38 72 m 2
 52 72 70 68 70 54 c 2
 70 40 l 2
 70 26 52 22 38 22 c 2
 18 22 l 1
 18 0 l 1
 6 0 l 1
 6 24 l 1
 6 72 l 1
 6 92 l 1
 18 92 l 1
 18 72 l 1
 38 72 l 2
38 68 m 2
 18 68 l 1
 18 26 l 1
 38 26 l 2
 48 26 58 30 58 40 c 2
 58 54 l 2
 58 64 48 68 38 68 c 2
EndSplineSet
EndChar

StartChar: longs
Encoding: 383 383 308
Width: 76
VWidth: 0
Flags: HW
HStem: 0 10G<32 44> 88 4<47 56>
VStem: 32 12<0 84> 58 12<78 87>
LayerCount: 2
Fore
SplineSet
32 0 m 1
 32 24 32 50 32 74 c 0
 32 88 43 92 51 92 c 0
 60 92 70 92 70 78 c 1
 58 78 l 1
 58 87 55 88 52 88 c 2
 51 88 l 2
 48 88 44 84 44 74 c 2
 44 68 l 2
 44 46 44 22 44 0 c 1
 32 0 l 1
EndSplineSet
EndChar

StartChar: paragraph
Encoding: 182 182 309
Width: 76
VWidth: 0
Flags: HW
HStem: 0 10G<38 50 58 70> 42 4<27 38 50 58> 88 4<27 38 50 58>
VStem: 6 12<52 82> 38 12<0 42 46 88> 58 12<0 42 46 88>
LayerCount: 2
Fore
SplineSet
38 46 m 1
 38 88 l 1
 28 88 18 84 18 74 c 2
 18 60 l 2
 18 50 28 46 38 46 c 1
38 42 m 1
 24 42 6 46 6 60 c 2
 6 74 l 2
 6 88 24 92 38 92 c 0
 48 92 60 92 70 92 c 1
 70 62 70 30 70 0 c 1
 58 0 l 1
 58 42 l 1
 50 42 l 1
 50 0 l 1
 38 0 l 1
 38 42 l 1
50 88 m 1
 50 46 l 1
 58 46 l 1
 58 88 l 1
 50 88 l 1
EndSplineSet
EndChar

StartChar: mu
Encoding: 181 181 310
AltUni2: 0003bc.ffffffff.0
Width: 76
VWidth: 0
Flags: HW
HStem: 0 4<29 52> 58 10G<6 18 58 70>
VStem: 6 12<-25 6 14 68> 58 12<14 68>
LayerCount: 2
Fore
SplineSet
42 0 m 3
 31 0 18 6 18 6 c 0
 18 -25 l 0
 6 -25 l 0
 6 68 l 0
 18 68 l 0
 18 14 l 2
 18 14 20 10 24 8 c 0
 26 7 32 4 38 4 c 0
 44 4 47 4 52 6 c 0
 58 8 58 14 58 14 c 2
 58 68 l 0
 70 68 l 0
 70 68 70 36 70 16 c 0
 70 4 53 0 42 0 c 3
EndSplineSet
EndChar

StartChar: beta
Encoding: 946 946 311
Width: 76
VWidth: 0
Flags: HW
HStem: 0 4<32 50> 46 4<32 50> 89 4<26 50>
VStem: 6 12<-25 83> 58 12<10 40 56 83>
LayerCount: 2
Fore
SplineSet
18 76 m 2
 18 -25 l 1
 6 -25 l 1
 6 76 l 2
 6 90 24 93 38 93 c 0
 52 93 70 90 70 76 c 2
 70 63 l 2
 70 54 63 50 54 48 c 1
 63 46 70 42 70 33 c 2
 70 17 l 2
 70 3 52 0 38 0 c 2
 32 0 l 1
 32 4 l 1
 38 4 l 2
 48 4 58 7 58 17 c 2
 58 33 l 2
 58 43 48 46 38 46 c 2
 32 46 l 1
 32 50 l 1
 38 50 l 2
 48 50 58 53 58 63 c 2
 58 76 l 2
 58 86 48 89 38 89 c 0
 28 89 18 86 18 76 c 2
EndSplineSet
EndChar

StartChar: Gamma
Encoding: 915 915 313
Width: 76
VWidth: 0
Flags: HW
HStem: 0 10G<6 18> 88 4<18 70>
VStem: 6 12<0 88>
LayerCount: 2
Fore
SplineSet
6 92 m 1
 70 92 l 1
 70 88 l 1
 18 88 l 1
 18 0 l 1
 6 0 l 1
 6 88 l 1
 6 92 l 1
EndSplineSet
EndChar

StartChar: uni0394
Encoding: 916 916 314
Width: 76
VWidth: 0
Flags: HW
HStem: 0 4<11 59> 82 10G<31 41>
LayerCount: 2
Fore
SplineSet
59 4 m 1
 33 76 l 1
 11 4 l 1
 59 4 l 1
62 0 m 1
 60 0 l 1
 10 0 l 1
 9 0 l 1
 6 0 l 1
 34 92 l 1
 38 92 l 1
 70 0 l 1
 62 0 l 1
EndSplineSet
EndChar

StartChar: Pi
Encoding: 928 928 315
Width: 76
VWidth: 0
Flags: HW
HStem: 0 10G<6 18 58 70> 88 4<18 58>
VStem: 6 12<0 88> 58 12<0 88>
LayerCount: 2
Fore
SplineSet
6 92 m 1
 70 92 l 1
 70 88 l 1
 70 0 l 1
 58 0 l 1
 58 88 l 1
 18 88 l 1
 18 0 l 1
 6 0 l 1
 6 88 l 1
 6 92 l 1
EndSplineSet
EndChar

StartChar: yen
Encoding: 165 165 321
Width: 76
VWidth: 0
Flags: HW
HStem: 0 10G<33 45> 40 4<6 33 45 70> 48 4<6 30 45 70> 82 10G<6 23 60 70>
VStem: 33 12<0 40 44 48>
LayerCount: 2
Fore
SplineSet
6 92 m 1
 17 92 l 1
 41 52 l 1
 66 92 l 1
 70 92 l 1
 45 52 l 1
 70 52 l 1
 70 48 l 1
 45 48 l 1
 45 44 l 1
 70 44 l 1
 70 40 l 1
 45 40 l 1
 45 0 l 1
 33 0 l 1
 33 40 l 1
 6 40 l 1
 6 44 l 1
 33 44 l 1
 33 46 33 46 33 48 c 1
 6 48 l 1
 6 52 l 1
 30 52 l 1
 6 92 l 1
EndSplineSet
EndChar

StartChar: sterling
Encoding: 163 163 323
Width: 76
VWidth: 0
Flags: HW
HStem: 0 3<18 70> 46 3<0 6 18 32> 89 4<26 50>
VStem: 6 12<3 46 49 83> 58 12<76 83>
LayerCount: 2
Fore
SplineSet
70 3 m 1
 70 0 l 1
 6 0 l 1
 6 46 l 1
 0 46 l 1
 0 49 l 1
 6 49 l 1
 6 76 l 2
 6 90 24 93 38 93 c 0
 52 93 70 90 70 76 c 1
 58 76 l 1
 58 86 48 89 38 89 c 0
 28 89 18 86 18 76 c 2
 18 49 l 1
 32 49 l 1
 32 46 l 1
 18 46 l 1
 18 16 l 1
 18 3 l 1
 70 3 l 1
EndSplineSet
EndChar

StartChar: brokenbar
Encoding: 166 166 324
Width: 128
VWidth: 0
Flags: HW
VStem: 32 12<-4 46 50 96>
LayerCount: 2
Fore
SplineSet
32 46 m 1
 44 46 l 1
 44 -4 l 1
 32 -4 l 1
 32 46 l 1
32 96 m 1
 44 96 l 1
 44 50 l 1
 32 50 l 1
 32 96 l 1
EndSplineSet
EndChar

StartChar: AE
Encoding: 198 198 326
Width: 76
VWidth: 0
Flags: HW
HStem: 0 4<48 70> 44 4<25 38 48 66> 88 4<48 70>
VStem: 38 10<4 44 48 87>
CounterMasks: 1 e0
LayerCount: 2
Fore
SplineSet
48 88 m 1
 48 48 l 1
 66 48 l 1
 66 44 l 1
 48 44 l 1
 48 4 l 1
 70 4 l 1
 70 0 l 1
 48 0 l 1
 38 0 l 1
 38 44 l 1
 24 44 l 1
 10 0 l 1
 6 0 l 1
 36 92 l 1
 40 92 l 1
 48 92 l 1
 70 92 l 1
 70 88 l 1
 48 88 l 1
38 87 m 1
 25 48 l 1
 38 48 l 1
 38 87 l 1
EndSplineSet
EndChar

StartChar: ampersand
Encoding: 38 38 327
Width: 76
VWidth: 0
Flags: HW
HStem: 0 4<22 38 54 70> 46 4<22 38 55 70> 89 4<22 40>
VStem: 6 12<8 42 55 85> 42 12<79 88> 42 9<7 43>
LayerCount: 2
Fore
SplineSet
18 32 m 0xf4
 18 18 18 32 18 18 c 0
 18 8 20 4 30 4 c 0
 40 4 42 8 42 18 c 0
 42 32 42 18 42 32 c 0
 42 42 40 46 30 46 c 0
 20 46 18 42 18 32 c 0xf4
6 32 m 0
 6 42 11 46 19 48 c 1
 11 50 6 56 6 64 c 2
 6 75 l 2
 6 89 16 93 30 93 c 0
 44 93 54 93 54 79 c 1
 42 79 l 1xf8
 42 89 40 89 30 89 c 0
 20 89 18 85 18 75 c 2
 18 64 l 2
 18 54 20 50 30 50 c 0
 38 50 44 49 48 46 c 1
 52 49 58 50 66 50 c 2
 70 50 l 1
 70 46 l 1
 63 46 l 2
 53 46 51 42 51 32 c 2
 51 18 l 2
 51 8 53 4 63 4 c 2
 70 4 l 1
 70 0 l 1
 66 0 l 2
 58 0 52 1 48 4 c 1
 44 1 38 0 30 0 c 0
 16 0 6 4 6 18 c 0
 6 32 6 18 6 32 c 0
EndSplineSet
Colour: ff0000
EndChar

StartChar: thorn
Encoding: 254 254 329
Width: 76
VWidth: 0
Flags: HW
HStem: 0 4<18 49> 64 4<18 49> 82 10G<6 18>
VStem: 6 12<-24 0 4 64 68 92> 58 12<10 58>
LayerCount: 2
Fore
SplineSet
38 68 m 2
 52 68 70 64 70 50 c 2
 70 18 l 2
 70 4 52 0 38 0 c 2
 18 0 l 1
 18 -24 l 1
 6 -24 l 1
 6 24 l 1
 6 72 l 1
 6 92 l 1
 18 92 l 1
 18 68 l 1
 38 68 l 2
38 64 m 2
 18 64 l 1
 18 4 l 1
 38 4 l 2
 48 4 58 8 58 18 c 2
 58 50 l 2
 58 60 48 64 38 64 c 2
EndSplineSet
EndChar

StartChar: oslash
Encoding: 248 248 331
Width: 76
VWidth: 0
Flags: HW
HStem: -1 4<28 49> 0 10G<0 15> 58 10G<61 76> 65 4<27 50>
VStem: 6 12<19 59> 58 12<9 49>
LayerCount: 2
Fore
SplineSet
38 65 m 0x1c
 28 65 18 61 18 51 c 2
 18 19 l 1
 56 59 l 1
 52 63 45 65 38 65 c 0x1c
58 49 m 1
 21 10 l 1
 25 6 31 3 38 3 c 0x8c
 48 3 58 7 58 17 c 2
 58 49 l 1
15 4 m 1
 11 0 l 1
 0 0 l 1
 8 9 l 1
 6 11 6 14 6 17 c 0
 6 31 6 37 6 51 c 0
 6 65 24 69 38 69 c 0x5c
 46 69 55 68 61 64 c 1
 65 68 l 1
 76 68 l 1x2c
 68 60 l 1
 70 58 70 54 70 51 c 0
 70 37 70 31 70 17 c 0
 70 3 52 -1 38 -1 c 0
 30 -1 21 0 15 4 c 1
EndSplineSet
EndChar

StartChar: uni00B3
Encoding: 179 179 332
Width: 52
VWidth: 0
Flags: HW
LayerCount: 2
Fore
SplineSet
42.4619140625 58 m 1
 51 56 58 52 58 43 c 2
 58 40 l 2
 58 26 45 23 38 23 c 0
 31 23 18 22 18 36 c 1
 30 36 l 1
 30 26 35.2119140625 27 38 27 c 0
 43 27 46 30 46 40 c 2
 46 43 l 2
 46 53 40.7880859375 56 38 56 c 1
 38 60 l 1
 40.7880859375 60 46 63 46 73 c 2
 46 76 l 2
 46 86 43 89 38 89 c 0
 33 89 30 90 30 80 c 1
 18 80 l 1
 18 94 31 93 38 93 c 0
 45 93 58 90 58 76 c 2
 58 73 l 2
 58 64 51 60 42.4619140625 58 c 1
EndSplineSet
EndChar

StartChar: OE
Encoding: 338 338 333
Width: 76
VWidth: 0
Flags: HW
HStem: -1 4<26 50> 89 4<26 50>
VStem: 6 12<9 83> 58 12<9 83>
LayerCount: 2
Fore
SplineSet
38 4 m 1
 38 88 l 1
 28 88 18 85 18 75 c 2
 18 17 l 2
 18 7 28 4 38 4 c 1
38 92 m 0
 48.6669921875 92 59.3333333333 92 70 92 c 1
 70 88 l 1
 48 88 l 1
 48 48 l 1
 66 48 l 1
 66 44 l 1
 48 44 l 1
 48 4 l 1
 70 4 l 1
 70 0 l 1
 59.3333333333 -0 48.6669921875 0 38 0 c 0
 24 0 6 3 6 17 c 2
 6 75 l 2
 6 89 24 92 38 92 c 0
EndSplineSet
EndChar
